<?xml version="1.0" encoding="UTF-8"?>
<svg version="1.1" xmlns="http://www.w3.org/2000/svg" width="3840" height="2160">
<path d="M0 0 C1.55829104 0.00138269 1.55829104 0.00138269 3.14806271 0.00279331 C4.92971828 0.00073132 4.92971828 0.00073132 6.74736691 -0.00137234 C8.71965519 0.00402058 8.71965519 0.00402058 10.73178768 0.00952244 C12.12108006 0.00980431 13.51037259 0.00964658 14.89966488 0.00907993 C18.6825558 0.00879195 22.46541529 0.01468882 26.24829888 0.02165389 C30.19745968 0.02788728 34.14662113 0.02849122 38.09578609 0.0296793 C45.57915367 0.03279266 53.0625067 0.04100611 60.54586786 0.05102879 C69.06326025 0.06218978 77.58065332 0.06770034 86.09805119 0.07272422 C103.62367685 0.08318872 121.14928835 0.10078825 138.67490292 0.12304783 C138.20945481 1.69340401 137.7424774 3.26330694 137.2748785 4.83302402 C137.01499897 5.70731336 136.75511944 6.58160269 136.48736477 7.48238564 C135.23123653 11.56505161 133.78998672 15.5740698 132.33115292 19.58789158 C131.84951435 20.92218456 131.84951435 20.92218456 131.35814571 22.28343296 C130.30022663 25.2102936 129.23783189 28.13550318 128.17490292 31.06054783 C127.61934216 32.59343449 127.61934216 32.59343449 127.05255795 34.15728855 C120.4282259 52.43212207 113.66422957 70.65363095 106.85922909 88.86181736 C101.18906258 104.0362153 95.56913742 119.22839932 89.98740292 134.43554783 C89.62317226 135.42746128 89.25894161 136.41937473 88.88367367 137.44134617 C87.83042329 140.31029212 86.77785733 143.1794879 85.72568417 146.04882908 C85.28757412 147.24317822 85.28757412 147.24317822 84.84061337 148.46165562 C81.09926112 158.6750687 77.3921008 168.90075364 73.67490292 179.12304783 C155.84490292 179.61804783 155.84490292 179.61804783 239.67490292 180.12304783 C241.15990292 175.17304783 241.15990292 175.17304783 242.67490292 170.12304783 C243.29816098 168.29444066 243.93913147 166.47160892 244.60996151 164.65991306 C244.96323009 163.7011829 245.31649868 162.74245274 245.68047237 161.75467014 C246.05761883 160.74057072 246.43476528 159.72647129 246.82334042 158.68164158 C247.43008854 157.03867603 247.43008854 157.03867603 248.0490942 155.36251926 C249.37989666 151.76081964 250.71491411 148.16069763 252.04990292 144.56054783 C252.99320272 142.01091033 253.93553107 139.46091424 254.87778378 136.91088963 C256.34156776 132.9500609 257.80566762 128.98935021 259.27126217 125.02919102 C262.53244538 116.21711397 265.78518336 107.40196871 269.03037167 98.58398533 C269.67885067 96.82192249 269.67885067 96.82192249 270.34043026 95.02426243 C271.20801545 92.6667531 272.07558956 90.30923969 272.94315243 87.95172215 C280.13872026 68.40305593 287.35050324 48.86036399 294.57892513 29.32382298 C295.47116474 26.91203487 296.36303509 24.50011013 297.25452328 22.08804417 C298.48204703 18.76725594 299.71105823 15.44702226 300.94052792 12.12695408 C301.30611309 11.13721592 301.67169827 10.14747776 302.04836178 9.12774754 C302.38177074 8.22844517 302.71517971 7.3291428 303.05869198 6.40258884 C303.34842892 5.61964954 303.63816586 4.83671024 303.9366827 4.03004551 C304.67490292 2.12304783 304.67490292 2.12304783 305.67490292 0.12304783 C352.53490292 0.12304783 399.39490292 0.12304783 447.67490292 0.12304783 C438.49454378 26.51658033 438.49454378 26.51658033 435.25693417 35.17773533 C434.88179684 36.18779133 434.50665951 37.19784733 434.12015438 38.23851109 C433.32326894 40.38347638 432.52535917 42.52806139 431.72644711 44.67227268 C429.5323519 50.56154391 427.34660977 56.45391834 425.15927792 62.34570408 C424.70641918 63.5648299 424.25356045 64.78395573 423.78697872 66.04002476 C418.91354244 79.16318473 414.07364057 92.29864304 409.23740292 105.43554783 C408.35956763 107.81950445 407.48171927 110.20345625 406.60385799 112.5874033 C404.84105697 117.37476933 403.07847834 122.16221718 401.3160162 126.94970798 C397.37439042 137.65605274 393.42973095 148.36127983 389.4852972 159.06659031 C387.30362655 164.98772343 385.1220585 170.90889435 382.94052792 176.83007908 C382.50822369 178.00344822 382.07591946 179.17681736 381.6305151 180.38574314 C378.96480136 187.62128285 376.29959223 194.85700824 373.63474178 202.09286594 C364.81801226 226.03284083 355.99643344 249.97096942 347.14829159 273.89935398 C341.22927349 289.90728862 335.3242286 305.92034612 329.42490292 321.93554783 C328.98734676 323.1233585 328.54979061 324.31116917 328.09897518 325.5349741 C324.03287305 336.57327185 319.96747968 347.6118305 315.90341854 358.65087986 C315.67413473 359.27365472 315.44485092 359.89642958 315.20861912 360.5380764 C314.05579684 363.66934724 312.90305341 366.80064704 311.75043392 369.93199253 C309.50940618 376.01939601 307.26646111 382.10607944 305.0191412 388.19116306 C304.16214128 390.5121835 303.30520646 392.83322797 302.44834042 395.15429783 C302.0360519 396.2710741 301.62376339 397.38785038 301.19898129 398.53846836 C298.99288387 404.52209458 296.8046003 410.51158666 294.64371395 416.51168919 C293.46820789 419.77378989 292.2837965 423.03261732 291.09824276 426.29107761 C290.57907031 427.72630365 290.06449097 429.16320236 289.55527401 430.6019907 C284.70867913 444.29511608 278.60250836 456.72299641 265.38584042 463.91211033 C258.7276889 467.08337437 253.04831549 469.25126847 245.63185787 469.24330235 C244.64052853 469.24467701 243.64919918 469.24605167 242.62782955 469.24746799 C241.55176952 469.24387272 240.4757095 469.24027744 239.36704159 469.23657322 C238.2251437 469.23671925 237.08324581 469.23686527 235.90674496 469.23701572 C232.13543448 469.23631951 228.3641735 469.22854067 224.59287167 469.22070408 C221.97684919 469.21883887 219.36082637 469.21741545 216.74480343 469.21641636 C210.56487513 469.21331138 204.38496458 469.20510924 198.20504409 469.19506687 C191.16757962 469.18387983 184.13011429 469.17838875 177.09264314 469.17337143 C162.62005392 469.16292593 148.14747867 469.14534264 133.67490292 469.12304783 C135.69088612 459.62385452 135.69088612 459.62385452 137.19272518 455.60864353 C137.4787611 454.83493412 137.76479702 454.06122471 138.05950069 453.26406956 C138.36699749 452.4505402 138.67449429 451.63701084 138.99130917 450.79882908 C139.31914898 449.91681828 139.64698879 449.03480747 139.98476315 448.12606907 C141.06359682 445.22719108 142.15056213 442.33143221 143.23740292 439.43554783 C144.00658686 437.37238713 144.77512965 435.30898731 145.54306698 433.24536228 C147.13479845 428.9696013 148.7292605 424.69487411 150.32578182 420.42089939 C153.53701628 411.81892652 156.71820745 403.20589782 159.89789486 394.59222507 C160.93924349 391.77170603 161.98140264 388.95148766 163.02377987 386.13134861 C172.02590953 361.77403553 180.9959179 337.4048725 189.96996212 313.03720188 C193.37731273 303.78508592 196.78480685 294.53302285 200.19279385 285.28114128 C201.79939879 280.91953997 203.40564218 276.55780561 205.01181698 272.19604588 C205.85001939 269.92040605 206.68823483 267.64477103 207.52646542 265.36914158 C208.09220776 263.83244816 208.09220776 263.83244816 208.66937923 262.26471043 C209.02263271 261.30586948 209.37588619 260.34702854 209.73984432 259.35913181 C210.04290493 258.5362215 210.34596554 257.7133112 210.6582098 256.86546421 C211.98709942 253.28093255 213.33258161 249.70257131 214.67490292 246.12304783 C159.89490292 246.12304783 105.11490292 246.12304783 48.67490292 246.12304783 C43.06490292 261.63304783 37.45490292 277.14304783 31.67490292 293.12304783 C26.06208527 308.29639326 26.06208527 308.29639326 23.36020565 315.48754978 C16.53333903 333.66370883 9.81879602 351.87930523 3.17490292 370.12304783 C-4.07029192 390.01663684 -11.41424863 409.87161793 -18.83290958 429.70117283 C-19.39544186 431.2060677 -19.39544186 431.2060677 -19.96933842 432.74136448 C-20.64758423 434.55533641 -21.32663655 436.36900724 -22.00690556 438.18222141 C-25.85392728 448.46954721 -29.57117137 458.79975211 -33.32509708 469.12304783 C-80.18509708 469.12304783 -127.04509708 469.12304783 -175.32509708 469.12304783 C-173.32324821 462.45021824 -171.25110995 455.94519074 -168.83290958 449.43164158 C-168.49499897 448.51389957 -168.15708836 447.59615757 -167.80893803 446.6506052 C-166.69214498 443.61953749 -165.57112333 440.59005219 -164.45009708 437.56054783 C-163.65171771 435.39618304 -162.85362867 433.23171115 -162.05580997 431.06713963 C-160.35982434 426.46704752 -158.66215876 421.86758028 -156.96328068 417.26855564 C-154.32512916 410.12548255 -151.69355551 402.9799979 -149.06337833 395.83398533 C-140.65799653 372.99972716 -132.23820336 350.17083253 -123.79930973 327.34893894 C-117.88001391 311.34027309 -111.97463746 295.32650403 -106.07509708 279.31054783 C-105.63621159 278.11908146 -105.19732609 276.92761509 -104.74514103 275.70004368 C-101.60479133 267.17450178 -98.46489475 258.64879304 -95.32509708 250.12304783 C-91.74207072 240.39376808 -88.15885094 230.66455963 -84.57509708 220.93554783 C-83.91628544 219.14701893 -83.91628544 219.14701893 -83.24416447 217.32235813 C-77.10609779 200.65993143 -70.95705265 184.00160092 -64.79848576 167.34674168 C-58.8794676 151.33880688 -52.97453556 135.3257081 -47.07509708 119.31054783 C-46.63787327 118.12373417 -46.20064945 116.93692051 -45.75017643 115.7141428 C-41.21070007 103.39193155 -36.67277202 91.06915268 -32.13878727 78.74491978 C-15.0977129 32.42428953 -15.0977129 32.42428953 -8.84710026 15.69046116 C-8.33896496 14.32968217 -7.83167884 12.96858574 -7.32531071 11.60714817 C-6.65616715 9.8093191 -5.98296909 8.01300056 -5.30947208 6.21679783 C-4.76371525 4.75790134 -4.76371525 4.75790134 -4.20693302 3.2695322 C-2.92736333 0.15492071 -2.92736333 0.15492071 0 0 Z " fill="#D61820" transform="translate(210.3250970840454,844.8769521713257)"/>
<path d="M0 0 C46.86 0 93.72 0 142 0 C129.48708473 35.2636703 129.48708473 35.2636703 123.07971191 52.331604 C121.04029683 57.76557612 119.01069571 63.20321476 116.98046875 68.640625 C116.56616608 69.74983307 116.1518634 70.85904114 115.7250061 72.00186157 C111.36088351 83.69520594 107.04914805 95.40763635 102.75 107.125 C102.38230499 108.12705475 102.01460999 109.1291095 101.63577271 110.16152954 C99.08791167 117.10673346 96.54339234 124.05315856 94 131 C93.63120728 132.0071405 93.26241455 133.01428101 92.88244629 134.05194092 C88.25112823 146.69989192 83.62343484 159.34916522 79 172 C81.74891139 170.70526387 84.11081904 169.27678332 86.51171875 167.41796875 C87.17848633 166.90468018 87.84525391 166.3913916 88.53222656 165.86254883 C89.2434668 165.30978271 89.95470703 164.7570166 90.6875 164.1875 C92.2173721 163.00771418 93.74732224 161.82802955 95.27734375 160.6484375 C96.45079346 159.74109863 96.45079346 159.74109863 97.64794922 158.81542969 C101.33803547 155.96723772 105.04466276 153.14080186 108.75 150.3125 C115.84440226 144.88931694 122.92499819 139.44846245 130 134 C132.71128275 131.91382771 135.42305677 129.82829415 138.13476562 127.74267578 C140.79352478 125.69766013 143.45182177 123.65205183 146.109375 121.60546875 C152.96016824 116.33103962 159.82383909 111.07374453 166.69335938 105.82373047 C173.13947094 100.89614609 179.57152742 95.95056996 186 91 C188.71128275 88.91382771 191.42305677 86.82829415 194.13476562 84.74267578 C196.79352478 82.69766013 199.45182177 80.65205183 202.109375 78.60546875 C208.96016824 73.33103962 215.82383909 68.07374453 222.69335938 62.82373047 C229.13947094 57.89614609 235.57152742 52.95056996 242 48 C244.71128275 45.91382771 247.42305677 43.82829415 250.13476562 41.74267578 C252.79352478 39.69766013 255.45182177 37.65205183 258.109375 35.60546875 C264.95563698 30.33452824 271.81381282 25.07944936 278.68017578 19.8347168 C282.03438695 17.27176519 285.38586477 14.70554973 288.7265625 12.125 C289.30341797 11.67962891 289.88027344 11.23425781 290.47460938 10.77539062 C292.00734433 9.59092207 293.53887867 8.40490034 295.0703125 7.21875 C296.03710938 6.4865625 297.00390625 5.754375 298 5 C299.49751549 3.71141838 299.49751549 3.71141838 301.02528381 2.39680481 C305.6512364 -0.87323693 310.01964953 -0.67007803 315.52514648 -0.56762695 C316.56004715 -0.56835709 317.59494781 -0.56908722 318.66120911 -0.56983948 C322.06504633 -0.56636981 325.46749703 -0.52753595 328.87109375 -0.48828125 C331.23762769 -0.47895097 333.60417132 -0.47183588 335.97071838 -0.46684265 C342.18682717 -0.44779009 348.40234796 -0.39870316 354.6182251 -0.34332275 C360.96610562 -0.29209335 367.31408153 -0.26932065 373.66210938 -0.24414062 C386.10833067 -0.19058367 398.55411636 -0.10529108 411 0 C408.18717072 2.83408138 405.43652378 5.5783042 402.27734375 8.0234375 C401.58415039 8.56186279 400.89095703 9.10028809 400.17675781 9.6550293 C399.43780273 10.22261963 398.69884766 10.79020996 397.9375 11.375 C397.15600586 11.97932861 396.37451172 12.58365723 395.56933594 13.20629883 C388.82914035 18.40169929 382.01811772 23.50131949 375.19873047 28.59204102 C369.13629426 33.12495264 363.16092236 37.75446802 357.2265625 42.453125 C352.38941877 46.28192155 347.4874724 50.02651295 342.59130859 53.77929688 C339.97462222 55.78657394 337.36279461 57.80016129 334.75 59.8125 C328.94538988 64.2799783 323.12638946 68.72854074 317.30664062 73.17626953 C310.86052906 78.10385391 304.42847258 83.04943004 298 88 C295.28871725 90.08617229 292.57694323 92.17170585 289.86523438 94.25732422 C287.20647522 96.30233987 284.54817823 98.34794817 281.890625 100.39453125 C275.03983176 105.66896038 268.17616091 110.92625547 261.30664062 116.17626953 C254.86052906 121.10385391 248.42847258 126.04943004 242 131 C239.28871725 133.08617229 236.57694323 135.17170585 233.86523438 137.25732422 C231.20647522 139.30233987 228.54817823 141.34794817 225.890625 143.39453125 C219.04354794 148.66609929 212.18401823 153.92109358 205.31762695 159.16748047 C199.87687824 163.32577138 194.44834538 167.49959921 189.02734375 171.68359375 C185.37070044 174.48151567 181.6878041 177.24334745 178 180 C186.03133357 197.58909019 195.00091009 214.70026816 203.89337158 231.86352539 C205.56479234 235.09039716 207.23357324 238.31863211 208.90234375 241.546875 C211.03655502 245.6748621 213.17183095 249.8022963 215.30819702 253.9291687 C219.67423659 262.36407224 224.02637245 270.80610864 228.375 279.25 C228.72859589 279.93656677 229.08219177 280.62313354 229.44650269 281.33050537 C232.32584974 286.92144984 235.20456458 292.51271976 238.08325195 298.10400391 C240.59687358 302.98615423 243.11074235 307.86817719 245.625 312.75 C245.97866638 313.43670776 246.33233276 314.12341553 246.69671631 314.83093262 C251.62145064 324.39231628 256.55621776 333.94845257 261.5 343.5 C266.80243058 353.74446763 272.0933863 363.99478401 277.375 374.25 C277.90525787 375.27957825 277.90525787 375.27957825 278.44622803 376.32995605 C281.32566686 381.92108351 284.20447088 387.51253776 287.08325195 393.10400391 C292.04078042 402.73289911 296.99968511 412.36108256 301.96240234 421.98730469 C302.65680217 423.33427696 303.35113762 424.68128243 304.04541016 426.02832031 C306.08469139 429.98485006 308.12525477 433.94071366 310.16766357 437.89562988 C311.0846809 439.6719015 312.00061732 441.44873102 312.91650391 443.22558594 C316.38798098 449.94949448 316.38798098 449.94949448 319.98339844 456.60742188 C320.30871552 457.19904114 320.63403259 457.7906604 320.96920776 458.40020752 C321.87755687 460.04616277 322.79376799 461.68777213 323.71044922 463.32910156 C325 466 325 466 325 469 C308.63125592 469.07024656 292.26256114 469.12306452 275.89370251 469.15543652 C268.29244621 469.17087047 260.69128386 469.19189311 253.09008789 469.22631836 C246.4607775 469.25632757 239.83153519 469.27560021 233.20215875 469.28226548 C229.69565764 469.28615835 226.18935121 469.29523356 222.68291283 469.31719017 C218.75756706 469.34156791 214.83240747 469.34196264 210.90698242 469.34057617 C209.75898666 469.351362 208.61099091 469.36214783 207.4282074 469.3732605 C194.10172056 469.32254777 181.8149987 465.62337284 171.8125 456.5 C166.75837585 451.01876677 163.42956255 444.55505247 160 438 C159.52353027 437.09378906 159.04706055 436.18757813 158.55615234 435.25390625 C154.66367934 427.83323878 150.82478211 420.38530223 146.99401855 412.93267822 C145.30321221 409.64522994 143.6084593 406.35981746 141.9140625 403.07421875 C137.96956479 395.42392606 134.02964758 387.7712796 130.09039307 380.11828613 C126.85269171 373.82846451 123.6141253 367.53908842 120.375 361.25 C120.02142426 360.56347351 119.66784851 359.87694702 119.30355835 359.1696167 C113.77272227 348.43147578 108.22794625 337.70061519 102.67456055 326.97412109 C99.32068238 320.49462664 95.97420841 314.01139032 92.63671875 307.5234375 C92.26861588 306.80790207 91.900513 306.09236664 91.52125549 305.35514832 C91.15322311 304.6397438 90.78519073 303.92433929 90.40600586 303.18725586 C83.66838486 290.09044059 76.90377626 277.01031055 70 264 C64.50810534 267.01146733 59.97090408 270.35147488 55.22265625 274.453125 C52.96747777 276.33018546 50.6809763 277.80379713 48.12109375 279.234375 C35.2438337 286.79882261 31.77002952 297.37381679 27.30606079 311.06137085 C24.37741625 320.02283797 21.04774293 328.83517603 17.76550293 337.67172241 C15.81363203 342.93992496 13.88453107 348.21645579 11.953125 353.4921875 C0.28518237 385.33167052 -11.43569269 417.15202157 -23.25 448.9375 C-23.5928302 449.86085144 -23.9356604 450.78420288 -24.28887939 451.73553467 C-25.23822249 454.29160064 -26.1891204 456.84708175 -27.140625 459.40234375 C-27.55775253 460.52601097 -27.55775253 460.52601097 -27.98330688 461.67237854 C-29.88480425 466.76960851 -29.88480425 466.76960851 -31 469 C-77.53 469 -124.06 469 -172 469 C-170.59930371 462.69686669 -169.08370011 457.03013521 -166.82421875 451.0625 C-166.50731583 450.21056564 -166.1904129 449.35863129 -165.86390686 448.48088074 C-165.17412055 446.62864739 -164.48163557 444.77741728 -163.78674316 442.92709351 C-162.65692586 439.91858638 -161.5341295 436.90753871 -160.41308594 433.89575195 C-159.20725604 430.65654074 -158.00093722 427.41751916 -156.79251099 424.17927551 C-152.51542437 412.71710182 -148.28739139 401.23701094 -144.06289673 389.75537109 C-142.28927277 384.93544769 -140.5140345 380.11611949 -138.73881531 375.29678345 C-137.38888347 371.63199085 -136.03914931 367.96712549 -134.68945312 364.30224609 C-129.85843832 351.18489941 -125.02535101 338.06831615 -120.19262695 324.95159912 C-118.88361306 321.39872721 -117.57461337 317.84585006 -116.265625 314.29296875 C-115.83330566 313.11955933 -115.40098633 311.9461499 -114.95556641 310.73718262 C-112.28986912 303.50168316 -109.6246743 296.26599881 -106.95983887 289.03018188 C-98.14310935 265.09020699 -89.32153052 241.15207841 -80.47338867 217.22369385 C-71.85824102 193.92409952 -63.27442057 170.61297367 -54.68945312 147.30224609 C-52.03826867 140.10365387 -49.38642421 132.90530493 -46.734375 125.70703125 C-46.30173843 124.53271545 -45.86910187 123.35839966 -45.4233551 122.14849854 C-43.24928505 116.24747658 -41.07494436 110.34655454 -38.90014648 104.44580078 C-34.85600933 93.47222123 -30.81418873 82.49780595 -26.78140259 71.52005005 C-25.13894919 67.04914925 -23.49521608 62.57871923 -21.85122108 58.10838509 C-20.74203951 55.09201281 -19.63376697 52.07531163 -18.52685547 49.05810547 C-18.1145166 47.9342041 -17.70217773 46.81030273 -17.27734375 45.65234375 C-16.92124023 44.68103516 -16.56513672 43.70972656 -16.19824219 42.70898438 C-10.92735116 28.41465946 -5.47135809 14.22553102 0 0 Z " fill="#D61820" transform="translate(983,845)"/>
<path d="M0 0 C5.83211717 0.01714938 11.66382161 0.00717698 17.495924 -0.01071739 C22.06215414 -0.02166116 26.62828955 -0.01806188 31.19452286 -0.01033401 C33.3430499 -0.00836429 35.49158617 -0.01067442 37.64010239 -0.01777267 C55.19430062 -0.06310977 73.30402265 0.53274872 89.98535156 6.57861328 C90.84700928 6.87977051 91.70866699 7.18092773 92.59643555 7.49121094 C122.7684485 18.40932435 147.57741693 41.9644355 161.42285156 70.76611328 C168.95557746 87.11309708 172.17884986 103.81151814 172.42285156 121.76611328 C172.44065674 122.56694336 172.45846191 123.36777344 172.47680664 124.19287109 C172.45878576 138.2269777 168.63940216 152.20325988 165.11035156 165.70361328 C164.91915741 166.44146057 164.72796326 167.17930786 164.53097534 167.93951416 C145.69773991 240.40763863 119.15834523 321.99791679 72.11035156 381.39111328 C71.36398437 382.35017578 70.61761719 383.30923828 69.84863281 384.29736328 C47.57663243 412.29174453 19.73313661 434.76942212 -11.88964844 451.39111328 C-12.63859375 451.7879834 -13.38753906 452.18485352 -14.15917969 452.59375 C-52.4410881 472.59969758 -93.70030161 479.52107863 -136.45996094 479.59423828 C-137.58274319 479.59706566 -138.70552544 479.59989304 -139.86233139 479.60280609 C-145.80405658 479.61772183 -151.74575797 479.62699944 -157.6875 479.63134766 C-163.76903523 479.63682222 -169.85034547 479.66085123 -175.93181038 479.68931961 C-180.65923671 479.7080977 -185.38661044 479.71315959 -190.11407089 479.71468353 C-192.35357773 479.71767626 -194.59308441 479.72558759 -196.83255386 479.73886871 C-231.96495086 479.93236475 -261.45318042 472.09877026 -288.88964844 449.39111328 C-289.81003906 448.69373047 -290.73042969 447.99634766 -291.67871094 447.27783203 C-292.40832031 446.65521484 -293.13792969 446.03259766 -293.88964844 445.39111328 C-293.88964844 444.73111328 -293.88964844 444.07111328 -293.88964844 443.39111328 C-294.54964844 443.39111328 -295.20964844 443.39111328 -295.88964844 443.39111328 C-299.12293376 439.92304583 -301.97546317 436.12856758 -304.88964844 432.39111328 C-305.57929688 431.51583984 -306.26894531 430.64056641 -306.97949219 429.73876953 C-326.48338855 404.05542085 -333.49707955 372.79114404 -329.44873047 340.91992188 C-328.07846606 332.62482079 -326.03334547 324.51508994 -323.88964844 316.39111328 C-323.53712631 315.02876771 -323.18508842 313.66629676 -322.83349609 312.30371094 C-310.52546486 264.87534036 -294.07612527 219.01039192 -273.88964844 174.39111328 C-273.48375488 173.49070312 -273.07786133 172.59029297 -272.65966797 171.66259766 C-267.89845508 161.1530123 -262.63768792 150.92104402 -257.16748047 140.76416016 C-256.3236597 139.19711051 -255.48341527 137.62812918 -254.64697266 136.05712891 C-243.10697348 114.41562192 -228.90490485 95.04225595 -211.88964844 77.39111328 C-211.35549316 76.83504395 -210.82133789 76.27897461 -210.27099609 75.70605469 C-203.20767689 68.39084892 -195.95726888 61.60749357 -187.88964844 55.39111328 C-187.29812988 54.92850098 -186.70661133 54.46588867 -186.09716797 53.98925781 C-176.76048995 46.7015739 -167.26085996 40.11607689 -156.88964844 34.39111328 C-156.03983398 33.9217334 -155.19001953 33.45235352 -154.31445312 32.96875 C-104.7994958 5.87746751 -55.66476369 -0.16537407 0 0 Z M-36.88964844 53.39111328 C-38.72849609 53.90158203 -38.72849609 53.90158203 -40.60449219 54.42236328 C-59.18194759 60.09721034 -77.51691649 70.11277872 -90.88964844 84.39111328 C-90.88964844 85.05111328 -90.88964844 85.71111328 -90.88964844 86.39111328 C-92.37464844 86.88611328 -92.37464844 86.88611328 -93.88964844 87.39111328 C-107.73065926 102.60623168 -115.07258296 120.95659613 -122.02252197 140.01513672 C-122.98386013 142.64925875 -123.94897807 145.28197809 -124.91455078 147.91455078 C-128.52452854 157.759858 -132.12384803 167.60900454 -135.71264648 177.46205139 C-140.48268664 190.55717363 -145.29594776 203.63558334 -150.13964844 216.70361328 C-157.44914437 236.4307933 -164.66719796 256.19083037 -171.87145996 275.956604 C-178.98992172 295.4861239 -186.15071842 314.9993031 -193.39941406 334.48095703 C-196.60167839 343.09997525 -199.74822843 351.73560205 -202.79589844 360.41064453 C-203.09258423 361.25294113 -203.38927002 362.09523773 -203.69494629 362.96305847 C-203.96867065 363.74731705 -204.24239502 364.53157562 -204.52441406 365.33959961 C-204.88484802 366.37108879 -204.88484802 366.37108879 -205.25256348 367.42341614 C-209.31609028 379.97400291 -207.159077 393.78589199 -201.38183594 405.43017578 C-194.49693329 417.05445327 -183.9684984 424.87075927 -171.09790039 428.96044922 C-142.25133893 434.58624628 -109.4017728 426.22528278 -85.18310547 410.26660156 C-59.72919658 392.63777232 -46.25870071 368.07023692 -36.01464844 339.51611328 C-35.27936079 337.49332557 -34.54292385 335.47095532 -33.80541992 333.44897461 C-32.26595618 329.22436075 -30.73215999 324.99775386 -29.20263672 320.76953125 C-26.9597 314.57518605 -24.69267914 308.38989818 -22.41699219 302.20751953 C-22.04940796 301.20887878 -21.68182373 300.21023804 -21.30310059 299.18133545 C-20.55945808 297.16137121 -19.81574465 295.14143307 -19.07196045 293.121521 C-17.18636465 287.9977199 -15.30568766 282.87211461 -13.42480469 277.74658203 C-9.289898 266.48046267 -5.15217393 255.21537989 -1.01364136 243.95059204 C0.86114379 238.84747685 2.73573801 233.74429151 4.61035156 228.64111328 C5.36035065 226.59944628 6.11035065 224.55777961 6.86035156 222.51611328 C7.41722656 221.00017578 7.41722656 221.00017578 7.98535156 219.45361328 C9.11035156 216.39111328 10.23535156 213.32861328 11.36035156 210.26611328 C11.73152603 209.2556897 12.1027005 208.24526611 12.48512268 207.20422363 C13.23587465 205.16051843 13.9866376 203.11681726 14.7374115 201.07312012 C16.6009961 196.00017594 18.46439583 190.927164 20.32739258 185.85400391 C23.8382491 176.29413981 27.35104738 166.73500105 30.8699646 157.17810059 C32.53029123 152.66854779 34.18962243 148.158629 35.84887695 143.64868164 C36.63939483 141.50087468 37.43039929 139.35324673 38.22192383 137.20581055 C39.32008446 134.22636509 40.41655938 131.24630411 41.51269531 128.26611328 C41.83374741 127.39643921 42.1547995 126.52676514 42.48558044 125.6307373 C48.71923644 108.66263632 51.71458074 94.07845458 44.35644531 76.82861328 C37.26083001 62.94878899 25.48764227 55.18354352 11.11035156 50.39111328 C6.05395974 50.1217003 0.98588619 50.14525945 -4.07714844 50.14111328 C-5.17118484 50.14010117 -5.17118484 50.14010117 -6.287323 50.1390686 C-16.77921211 50.15456066 -26.72023096 50.46873143 -36.88964844 53.39111328 Z " fill="#6C6D70" transform="translate(3007.8896484375,839.60888671875)"/>
<path d="M0 0 C29.04 0 58.08 0 88 0 C94.26861581 15.38660244 100.52770668 30.74995886 106.54797363 46.230896 C108.47258835 51.17920411 110.40458646 56.12463058 112.3359375 61.0703125 C112.9242334 62.57732224 112.9242334 62.57732224 113.52441406 64.11477661 C117.40381891 74.04640283 121.3232796 83.96200628 125.25 93.875 C131.82126994 110.46759248 138.3548572 127.07475356 144.875 143.6875 C151.7233648 161.1356215 158.59262661 178.57515385 165.5 196 C173.38706795 215.89649412 181.22099925 235.8135865 189.04150391 255.73632812 C196.66942053 275.16741352 204.32472707 294.58757573 212 314 C216.47601639 303.76172435 220.26865967 293.28203547 224.09588623 282.78897095 C225.68709234 278.42672346 227.28439466 274.06671565 228.88131714 269.70655823 C229.70803877 267.44920622 230.53447321 265.19174902 231.36062622 262.93418884 C235.34359104 252.05220737 239.35500901 241.18084853 243.375 230.3125 C243.71892792 229.38238098 244.06285583 228.45226196 244.41720581 227.49395752 C252.32711338 206.10283416 260.25000334 184.71651106 268.17303467 163.33024597 C272.36746083 152.00840877 276.56084481 140.68618569 280.75411987 129.36392212 C281.99951776 126.00130206 283.24498719 122.6387085 284.49047852 119.27612305 C288.7082262 107.888891 292.92513542 96.50134944 297.140625 85.11328125 C304.79268084 64.44231391 312.44657123 43.77201176 320.12463379 23.11068726 C320.82756561 21.21875759 321.53012708 19.32669028 322.2322998 17.43447876 C323.18892261 14.85695034 324.14697828 12.27995938 325.10546875 9.703125 C325.38672104 8.94450668 325.66797333 8.18588837 325.95774841 7.40428162 C327.88555507 2.22888986 327.88555507 2.22888986 329 0 C351.77 0 374.54 0 398 0 C396.1955553 6.01481565 394.40348287 11.89589606 392.234375 17.765625 C391.96879288 18.49140244 391.70321075 19.21717987 391.42958069 19.96495056 C390.53944146 22.3944333 389.64482709 24.82224032 388.75 27.25 C388.09712051 29.02770334 387.4443745 30.8054557 386.79174805 32.58325195 C378.61518854 54.83316816 370.35030455 77.05067126 362.09703255 99.27222061 C356.99409001 113.01181585 351.90161822 126.75527821 346.8125 140.5 C345.9912982 142.71769423 345.17009052 144.93538629 344.34887695 147.15307617 C342.71640343 151.56166105 341.08400973 155.97027548 339.45166016 160.37890625 C335.71948634 170.45851336 331.98620219 180.53770923 328.25302124 190.61694336 C326.1686372 196.24461275 324.08432202 201.87230764 322 207.5 C321.166667 209.75000012 320.33333366 212.00000012 319.5 214.25 C319.0875 215.36375 318.675 216.4775 318.25 217.625 C274.49999998 335.75000005 274.49999998 335.75000005 273.25012207 339.12466431 C272.41637654 341.37578132 271.58263631 343.6269003 270.74890137 345.87802124 C268.6719181 351.485947 266.59484414 357.09383913 264.51757812 362.70166016 C260.69178374 373.03012082 256.86680506 383.35888099 253.04498291 393.68881226 C243.74970002 418.81268412 234.43666187 443.92885015 225 469 C216.35847567 469.09326128 207.71716657 469.16404625 199.07526112 469.20724869 C195.06114051 469.22799852 191.04736776 469.25608078 187.03344727 469.30175781 C183.14952432 469.34567179 179.26593295 469.36923149 175.38178062 469.37950897 C173.91040525 469.38681967 172.43904511 469.40109206 170.96781349 469.42292023 C154.99612428 469.65015659 143.08453393 466.2332421 131.1953125 455.34765625 C123.50393291 447.19798202 119.85824038 435.47605433 116.1875 425.125 C115.47900577 423.15733853 114.76757306 421.19075247 114.05618286 419.22413635 C113.54043533 417.79771055 113.0255444 416.37097478 112.51144409 414.94395447 C109.41246348 406.3467125 106.24122911 397.77624485 103.07025146 389.20535278 C101.98640373 386.27574976 100.90355893 383.34577736 99.82080078 380.41577148 C94.03121768 364.75562611 88.19857414 349.11166504 82.36157227 333.46914673 C76.15030064 316.81927804 70.00164352 300.14725153 63.88653564 283.46185303 C58.11858814 267.72721061 52.29629692 252.01353308 46.4375 236.3125 C40.14417003 219.44577457 33.86789549 202.57296561 27.625 185.6875 C27.2717868 184.73299957 26.91857361 183.77849915 26.55465698 182.79507446 C22.64128439 172.21822686 18.75950128 161.6326522 15 151 C13.3346289 153.49805665 12.39664407 155.34549166 11.39038086 158.10864258 C11.08431915 158.9428775 10.77825745 159.77711243 10.46292114 160.6366272 C10.1335556 161.54673553 9.80419006 162.45684387 9.46484375 163.39453125 C8.93985794 164.83002823 8.93985794 164.83002823 8.40426636 166.29452515 C7.64486604 168.37234412 6.88727012 170.45082324 6.1312561 172.52987671 C4.91944943 175.86213597 3.70296066 179.19265127 2.48510742 182.52270508 C1.22382631 185.97156902 -0.03720751 189.42052061 -1.29685974 192.86997986 C-5.2343974 203.65213723 -9.20506071 214.42186029 -13.1875 225.1875 C-13.52632202 226.10391266 -13.86514404 227.02032532 -14.2142334 227.96450806 C-21.55119947 247.80872056 -28.91277195 267.64381745 -36.2734375 287.47924805 C-44.6295467 309.99740155 -52.97370066 332.51997007 -61.31344604 355.04418945 C-64.23936887 362.9464395 -67.16635434 370.84829545 -70.09375 378.75 C-70.94588498 381.05029192 -71.79801715 383.35058489 -72.65014648 385.65087891 C-74.32383224 390.16889568 -75.99787574 394.68677969 -77.67211914 399.20458984 C-81.77998781 410.29147347 -85.87961969 421.38131354 -89.96484375 432.4765625 C-91.14246261 435.67247599 -92.32020488 438.86834398 -93.49795532 442.06420898 C-94.59953966 445.05585566 -95.69861508 448.04841601 -96.79760742 451.04101562 C-97.46130566 452.84249218 -98.12511728 454.64392696 -98.7890625 456.4453125 C-99.23601723 457.66621078 -99.23601723 457.66621078 -99.69200134 458.91177368 C-99.96847 459.66034637 -100.24493866 460.40891907 -100.52978516 461.18017578 C-100.76702301 461.82560333 -101.00426086 462.47103088 -101.24868774 463.13601685 C-102.05585702 465.13857958 -103.0344142 467.06882839 -104 469 C-126.77 469 -149.54 469 -173 469 C-169.62512803 457.75042677 -169.62512803 457.75042677 -168.14086914 453.76464844 C-167.80442886 452.8564032 -167.46798859 451.94815796 -167.12135315 451.01239014 C-166.76290817 450.05439514 -166.4044632 449.09640015 -166.03515625 448.109375 C-165.65016464 447.07258606 -165.26517303 446.03579712 -164.86851501 444.96759033 C-163.60270673 441.56065447 -162.33257554 438.1553471 -161.0625 434.75 C-160.16438239 432.33475853 -159.26660198 429.91939165 -158.36914062 427.50390625 C-156.74021226 423.1204034 -155.11047669 418.73720426 -153.47936058 414.35451508 C-149.38443756 403.35129788 -145.30807979 392.34122256 -141.23287964 381.33068848 C-139.15609514 375.72014712 -137.07797531 370.1101004 -135 364.5 C-134.16666037 362.25000233 -133.33332704 360.00000233 -132.5 357.75 C-117.5 317.25 -102.5 276.75 -87.5 236.25 C-87.08751511 235.13629028 -86.67503021 234.02258057 -86.25004578 232.87512207 C-85.41656118 230.62471468 -84.58307526 228.37430778 -83.74958801 226.12390137 C-81.66855814 220.50513848 -79.58755116 214.88636712 -77.5065918 209.26757812 C-73.72912655 199.06813078 -69.95148354 188.86874943 -66.17300415 178.66967773 C-57.94096881 156.44929352 -49.71162104 134.22793762 -41.5 112 C-35.25714406 95.10151902 -29.00635836 78.20598672 -22.75 61.3125 C-22.15819946 59.71426392 -22.15819946 59.71426392 -21.55444336 58.08374023 C-14.38313777 38.71746052 -7.19054599 19.35916228 0 0 Z " fill="#6C6D70" transform="translate(3303,845)"/>
<path d="M0 0 C43.89 0 87.78 0 133 0 C133.95666578 2.86999734 134.26105807 5.11854275 134.49507141 8.11733246 C134.62253518 9.71499521 134.62253518 9.71499521 134.75257397 11.34493399 C134.84236176 12.51932232 134.93214956 13.69371066 135.0246582 14.90368652 C135.12281232 16.1480556 135.22096643 17.39242467 135.32209492 18.6745019 C135.59496201 22.13510747 135.86307585 25.5960676 136.13043833 29.0571022 C136.4194466 32.78757138 136.71283705 36.51769612 137.00570679 40.24786377 C137.51289415 46.71535982 138.0173073 53.18306746 138.51986694 59.65092468 C139.24743598 69.01439984 139.97933005 78.37753299 140.71230805 87.7405861 C141.90259317 102.946622 143.08958287 118.15291324 144.27441406 133.359375 C145.42339267 148.10557922 146.57355708 162.85168999 147.72558594 177.59765625 C147.83187559 178.95817581 147.83187559 178.95817581 147.9403125 180.34618062 C148.71450917 190.25561688 149.48897696 200.16503195 150.26353455 210.07444 C150.46926185 212.70650251 150.67498738 215.33856515 150.88071072 217.97062796 C151.01636681 219.70621642 151.15202719 221.44180453 151.28769195 223.1773923 C152.14962234 234.20453232 153.01038523 245.23176262 153.86987305 256.25909328 C154.30425585 261.83208342 154.7391019 267.40503738 155.17408681 272.97798055 C155.51723977 277.37484588 155.85981104 281.77175598 156.20191342 286.16870317 C156.45916062 289.47266082 156.71732263 292.77654688 156.9753418 296.08044434 C157.06512959 297.2369869 157.15491739 298.39352946 157.24742603 299.58511877 C157.78030478 306.39517869 158.36335863 313.19884447 159 320 C159.34248055 319.47812166 159.68496111 318.95624332 160.03781986 318.41855049 C173.42309335 298.02319015 186.81892355 277.63609662 200.5 257.4375 C201.00115326 256.69747742 201.50230652 255.95745483 202.01864624 255.19500732 C204.6001298 251.38419932 207.18340584 247.57461013 209.76757812 243.765625 C215.60396994 235.16227844 221.43102687 226.55263713 227.25 217.9375 C227.85122681 217.04749298 228.45245361 216.15748596 229.07189941 215.24050903 C239.19761297 200.24189327 249.1807536 185.15243293 259.11999512 170.02978516 C267.12449702 157.85249311 275.19396114 145.7309303 283.421875 133.703125 C289.56561481 124.7212139 295.66023524 115.70606542 301.75 106.6875 C302.36607117 105.77522644 302.98214233 104.86295288 303.61688232 103.92303467 C313.83998716 88.77472658 323.92761251 73.54032625 333.96188354 58.26644897 C354.24922751 27.38927841 354.24922751 27.38927841 362.9752655 15.07914734 C365.05495976 12.0694232 365.05495976 12.0694232 366.49760437 8.85467529 C368.34437351 5.27059092 370.02990997 2.74594563 373 0 C379.03412002 -1.68245553 384.84710177 -1.4047214 391.0625 -1.171875 C392.82220654 -1.14946753 394.58198842 -1.13239821 396.34179688 -1.12042236 C400.95357302 -1.0747989 405.56074686 -0.9571246 410.17071533 -0.82397461 C414.88270804 -0.70077463 419.59545158 -0.64631935 424.30859375 -0.5859375 C433.54107483 -0.45759079 442.77015346 -0.25304806 452 0 C446.82688452 9.49183716 446.82688452 9.49183716 444.03125 13.36328125 C443.47445557 14.14590332 442.91766113 14.92852539 442.34399414 15.73486328 C441.73547607 16.5854834 441.12695801 17.43610352 440.5 18.3125 C430.7588734 32.10757917 421.54849776 46.25304405 412.29296875 60.3762207 C406.66039378 68.96561394 401.0045546 77.52119302 395.11987305 85.94042969 C392.80534104 89.28094738 390.54482018 92.65356812 388.296875 96.0390625 C384.37386912 101.94667497 380.42263138 107.83446166 376.453125 113.7109375 C375.87767944 114.56298767 375.30223389 115.41503784 374.70935059 116.29290771 C373.51041041 118.06796253 372.31139356 119.84296555 371.11230469 121.61791992 C361.70065316 135.55155661 352.30988551 149.49814027 343 163.5 C333.20785095 178.22708498 323.32455342 192.89196692 313.421875 207.54492188 C304.50529548 220.74255409 295.65685722 233.98461308 286.84033203 247.24926758 C279.61861368 258.10493613 272.30463186 268.89877818 265.00683594 279.70336914 C255.43386398 293.87795755 245.92147399 308.09161881 236.44812012 322.33294678 C228.9961683 333.53386129 221.4923397 344.69866153 213.96032715 355.84588623 C204.95596825 369.1739544 195.96781797 382.51207768 187.0602417 395.90505981 C179.12486894 407.83584305 171.16964085 419.75333973 163.17004395 431.64117432 C162.07041237 433.27663615 160.97230851 434.91312637 159.87585449 436.55072021 C158.34859349 438.83099181 156.81563693 441.10733187 155.28125 443.3828125 C154.8352948 444.05113098 154.3893396 444.71944946 153.92987061 445.40802002 C146.41035024 456.51487328 137.25862532 465.12460591 123.88362122 468.54051208 C120.15545145 469.1345738 116.4851095 469.13115627 112.72143555 469.11352539 C111.90140549 469.11367142 111.08137543 469.11381744 110.23649597 469.1139679 C107.53654296 469.1132734 104.83665965 469.1055027 102.13671875 469.09765625 C100.26056455 469.09579043 98.38440987 469.0943673 96.508255 469.09336853 C91.577979 469.0895563 86.6477326 469.07973707 81.71746826 469.06866455 C76.68339437 469.05842259 71.64931569 469.05386494 66.61523438 469.04882812 C56.74347534 469.03811364 46.87174309 469.02056686 37 469 C35.50211597 457.03891832 34.36184734 445.08163925 33.43075562 433.06416321 C33.28494092 431.21408442 33.13883726 429.36402838 32.99247324 427.51399297 C32.5949777 422.47911293 32.20155831 417.44392178 31.80886412 412.4086653 C31.38320344 406.96007581 30.95370299 401.51178877 30.52470398 396.0634613 C29.68666919 385.41256771 28.85216655 374.76140024 28.01891516 364.11013148 C27.04818088 351.70291767 26.07408654 339.29596834 25.09990413 326.88902488 C23.30989925 304.09024888 21.52347871 281.29119307 19.73867835 258.49200915 C18.10978452 237.68464209 16.47802993 216.87750133 14.84375 196.07055664 C13.00559588 172.66779314 11.16891075 149.26491507 9.33481276 125.86183327 C9.13937349 123.36805001 8.94393364 120.8742668 8.74849319 118.38048363 C8.60426237 116.54008245 8.60426237 116.54008245 8.45711779 114.66250146 C7.77911883 106.01232239 7.10010445 97.36222337 6.42072678 88.71215248 C5.59363309 78.18076601 4.76824445 67.64924753 3.94503091 57.11755703 C3.52493276 51.74357072 3.1040865 46.36964579 2.68122292 40.99587631 C2.29440059 36.079823 1.90973039 31.16360627 1.52679844 26.24724843 C1.38770126 24.46630568 1.24781164 22.68542461 1.10706131 20.90461174 C0.91622744 18.48861961 0.72826147 16.07242087 0.54102135 13.65614796 C0.48544095 12.96123138 0.42986056 12.2663148 0.37259591 11.55034015 C0.07533258 7.66862223 0 3.90824312 0 0 Z " fill="#6C6D70" transform="translate(1437,845)"/>
<path d="M0 0 C1.04899568 -0.00085442 2.09799135 -0.00170885 3.17877477 -0.00258917 C6.67481914 -0.00422921 10.17081495 0.00125315 13.66685486 0.00672913 C16.18046569 0.00701134 18.6940766 0.00685259 21.20768738 0.00628662 C26.60961583 0.0060593 32.01152879 0.00888581 37.41345406 0.01452446 C45.22360868 0.02267154 53.03375746 0.02525796 60.84391587 0.02651245 C73.51715797 0.02869794 86.19039361 0.03534436 98.8636322 0.04481506 C111.1702725 0.05400221 123.47691104 0.06107667 135.78355408 0.06532288 C136.92253312 0.06571696 136.92253312 0.06571696 138.08452184 0.06611901 C141.89402429 0.0674241 145.70352675 0.06868779 149.51302922 0.06993091 C181.08766525 0.08028785 212.66229325 0.09796709 244.23692322 0.12025452 C243.60522342 3.39120847 242.85979736 6.43702636 241.71812439 9.56825256 C241.25710579 10.84064034 241.25710579 10.84064034 240.78677368 12.13873291 C240.28836723 13.49663689 240.28836723 13.49663689 239.77989197 14.88197327 C239.43565689 15.82780777 239.09142181 16.77364227 238.73675537 17.74813843 C238.00796569 19.74836865 237.2774301 21.74796349 236.54527283 23.7469635 C235.43525959 26.7781628 234.3307364 29.81131687 233.22715759 32.84486389 C232.51589431 34.79485235 231.80431567 36.74472582 231.09239197 38.69447327 C230.60309456 40.03719551 230.60309456 40.03719551 230.10391235 41.40704346 C223.82467305 58.53250469 223.82467305 58.53250469 222.23692322 60.12025452 C219.65663331 60.22156746 217.10287592 60.25738127 214.52198792 60.2515564 C213.29503175 60.25472997 213.29503175 60.25472997 212.04328859 60.25796765 C209.28050911 60.26399702 206.51777492 60.2629654 203.75498962 60.26210022 C201.78256655 60.26512994 199.81014417 60.26865087 197.83772278 60.27262878 C193.57775926 60.28053528 189.31780419 60.28566939 185.05783463 60.28891945 C178.31691667 60.29481939 171.57605182 60.31135213 164.8351593 60.33026123 C162.52862743 60.33659933 160.22209552 60.34292495 157.91556358 60.3492384 C156.76008609 60.35240421 155.60460859 60.35557002 154.41411662 60.35883176 C138.71459952 60.40091577 123.0151062 60.43386014 107.3155365 60.44618225 C96.73558685 60.45457161 86.15576766 60.47709949 75.57588327 60.51553792 C69.97685787 60.53527797 64.37802741 60.54771013 58.778965 60.54270363 C53.50446436 60.53804536 48.2303323 60.55192722 42.95590591 60.57971573 C41.02546905 60.5866091 39.09499393 60.58677414 37.16455841 60.57951546 C23.37821026 60.53293595 11.08824327 61.56124668 0.23692322 71.12025452 C-9.26464646 81.99531843 -12.60220809 93.9537436 -11.76307678 108.12025452 C-9.30781565 125.95462382 8.07446694 143.0835356 20.02207947 155.59681702 C21.91568373 157.7542568 23.14561159 159.4937079 24.23692322 162.12025452 C24.89692322 162.12025452 25.55692322 162.12025452 26.23692322 162.12025452 C27.61192322 163.51869202 27.61192322 163.51869202 29.23692322 165.49525452 C34.6797999 171.88865436 40.560814 177.83694213 46.92686462 183.31239319 C51.08090188 186.9383361 55.01924987 190.74126787 58.92051697 194.63587952 C59.62032181 195.33235596 60.32012665 196.0288324 61.0411377 196.74641418 C62.51045392 198.21070366 63.97845104 199.67631787 65.44517517 201.14320374 C67.66006101 203.35590646 69.88282627 205.56047878 72.10606384 207.76478577 C79.61699565 215.24627843 86.71387671 222.75207288 93.23692322 231.12025452 C94.12223993 232.17253556 95.01410238 233.21939928 95.91661072 234.25697327 C114.25002555 255.55896594 127.68033062 279.7214265 134.23692322 307.12025452 C134.48571228 308.15021545 134.73450134 309.18017639 134.99082947 310.24134827 C138.36281639 327.6200501 137.29953359 346.94168162 133.23692322 364.12025452 C133.00344177 365.14409241 133.00344177 365.14409241 132.76524353 366.18861389 C126.86338356 391.18611261 113.31388196 413.13726307 95.23692322 431.12025452 C94.75642517 431.60333069 94.27592712 432.08640686 93.78086853 432.5841217 C67.03649523 459.1836372 32.25399017 469.50932852 -4.70834351 469.49351501 C-7.27818416 469.4829023 -9.84802363 469.47199795 -12.41786194 469.46083069 C-15.16925298 469.45830315 -17.92063645 469.46033088 -20.67202759 469.4621582 C-26.56002057 469.46371977 -32.44791267 469.4544287 -38.33588028 469.43744469 C-46.8485339 469.41290588 -55.36113949 469.40523433 -63.87382464 469.40148071 C-77.69012634 469.39493936 -91.50637444 469.3750416 -105.32264709 469.34657288 C-118.73182408 469.31897198 -132.14098644 469.29776805 -145.55018616 469.28504944 C-146.3788289 469.28426127 -147.20747164 469.2834731 -148.06122477 469.28266104 C-152.21890914 469.2787455 -156.37659361 469.27495448 -160.53427815 469.27122533 C-194.94391624 469.24020167 -229.3534907 469.18742963 -263.76307678 469.12025452 C-263.28538211 467.51704877 -262.80682928 465.9140987 -262.32791328 464.31125736 C-262.06151106 463.41858727 -261.79510884 462.52591717 -261.52063382 461.60619646 C-260.68771756 458.8729614 -259.77009851 456.18525221 -258.786026 453.50282288 C-258.42910675 452.52578903 -258.0721875 451.54875519 -257.70445251 450.54211426 C-257.3293454 449.52504898 -256.95423828 448.5079837 -256.56776428 447.46009827 C-256.17485199 446.38901321 -255.7819397 445.31792816 -255.37712097 444.21438599 C-254.55328584 441.97096802 -253.72797897 439.72809002 -252.90126038 437.48573303 C-251.63080216 434.03801292 -250.36657401 430.58805182 -249.10292053 427.13783264 C-248.29990404 424.95345219 -247.49653156 422.76920257 -246.69276428 420.58509827 C-246.3136087 419.54981491 -245.93445312 418.51453156 -245.54380798 417.44787598 C-245.19319305 416.49921158 -244.84257813 415.55054718 -244.4813385 414.57313538 C-244.17283966 413.7350383 -243.86434082 412.89694122 -243.54649353 412.03344727 C-242.76307678 410.12025452 -242.76307678 410.12025452 -241.76307678 409.12025452 C-238.99356658 409.01882942 -236.24876659 408.98313832 -233.47868347 408.98895264 C-232.59945941 408.98683692 -231.72023535 408.98472121 -230.81436813 408.98254138 C-227.84429654 408.97651134 -224.87426707 408.97754368 -221.90419006 408.97840881 C-219.78398567 408.97537916 -217.66378193 408.97185825 -215.5435791 408.96788025 C-210.96440177 408.95997355 -206.3852323 408.95483958 -201.80604935 408.95158958 C-194.56105911 408.94569048 -187.3161183 408.92915875 -180.07115173 408.9102478 C-177.59238628 408.90390972 -175.11362079 408.8975841 -172.63485527 408.89127064 C-171.3931072 408.88810483 -170.15135913 408.88493901 -168.87198234 408.88167727 C-151.99812431 408.83958768 -135.12428845 408.8066459 -118.25038147 408.79432678 C-106.87937063 408.78593969 -95.50848125 408.76342046 -84.13753116 408.72497112 C-78.11932423 408.70522405 -72.1012988 408.69280127 -66.0830574 408.6978054 C-60.4145945 408.70246074 -54.74647487 408.68859756 -49.07808113 408.6607933 C-47.00251327 408.65389515 -44.92690981 408.65374008 -42.85134315 408.66099358 C-27.53220056 408.70910194 -15.61956709 407.62639564 -4.11463928 396.53041077 C4.62334371 387.10492149 7.7600739 375.91909189 7.47129822 363.34291077 C6.68890775 352.58504178 1.22153664 344.73911102 -4.76307678 336.12025452 C-5.38158508 335.22137512 -5.38158508 335.22137512 -6.0125885 334.30433655 C-12.23902317 325.28783479 -18.96622579 316.82170197 -26.02088928 308.43666077 C-27.76307678 306.12025452 -27.76307678 306.12025452 -27.76307678 304.12025452 C-28.42307678 304.12025452 -29.08307678 304.12025452 -29.76307678 304.12025452 C-31.11405052 302.60873906 -32.39235023 301.03212139 -33.63807678 299.43275452 C-37.16116107 295.02889916 -40.79375593 290.80836714 -44.63807678 286.68275452 C-45.14137512 286.14231506 -45.64467346 285.60187561 -46.16322327 285.0450592 C-47.18522391 283.94967498 -48.207929 282.85494758 -49.2313385 281.76087952 C-51.7341429 279.0801582 -54.21878907 276.38292252 -56.70057678 273.68275452 C-57.55522522 272.75591858 -58.40987366 271.82908264 -59.29042053 270.87416077 C-61.04898935 268.91556517 -62.75414279 266.95063311 -64.43104553 264.92494202 C-67.28823289 261.48865973 -70.41320234 258.41658488 -73.63417053 255.32337952 C-74.27483459 254.69947327 -74.91549866 254.07556702 -75.57557678 253.43275452 C-76.18014709 252.85138733 -76.78471741 252.27002014 -77.40760803 251.67103577 C-78.76307678 250.12025452 -78.76307678 250.12025452 -78.76307678 248.12025452 C-79.42307678 248.12025452 -80.08307678 248.12025452 -80.76307678 248.12025452 C-82.06776428 246.86244202 -82.06776428 246.86244202 -83.63807678 244.99525452 C-84.25682678 244.2669342 -84.87557678 243.53861389 -85.51307678 242.78822327 C-86.25557678 241.90779358 -86.99807678 241.02736389 -87.76307678 240.12025452 C-88.69930665 239.03192102 -89.63689324 237.94475369 -90.57557678 236.85853577 C-93.16790579 233.8573987 -95.74288352 230.84196541 -98.31141663 227.82044983 C-99.60489359 226.30551986 -100.91160481 224.80191233 -102.22010803 223.29994202 C-115.51981328 207.69433341 -124.6039819 188.89436278 -129.76307678 169.12025452 C-130.24454163 167.30654358 -130.24454163 167.30654358 -130.73573303 165.45619202 C-134.98880491 146.03053351 -134.9216931 122.33366701 -129.76307678 103.12025452 C-129.56440002 102.37598206 -129.36572327 101.63170959 -129.161026 100.86488342 C-123.3864814 79.76941224 -113.84880335 61.8902944 -99.76307678 45.12025452 C-99.13788147 44.35970764 -98.51268616 43.59916077 -97.86854553 42.81556702 C-92.75844957 36.80001617 -87.01843622 31.91366734 -80.76307678 27.12025452 C-80.01799866 26.5363092 -79.27292053 25.95236389 -78.50526428 25.35072327 C-55.87445035 8.51560559 -28.04943741 -0.08458134 0 0 Z " fill="#6C6D70" transform="translate(2251.7630767822266,844.8797454833984)"/>
<path d="M0 0 C46.86 0 93.72 0 142 0 C138.62512803 11.24957323 138.62512803 11.24957323 137.06494141 15.46313477 C136.53503098 16.90125267 136.53503098 16.90125267 135.99441528 18.36842346 C135.61727386 19.38250778 135.24013245 20.3965921 134.8515625 21.44140625 C134.44710907 22.53658066 134.04265564 23.63175507 133.62594604 24.76011658 C132.29508294 28.36194794 130.96001274 31.96220486 129.625 35.5625 C128.68095531 38.11433018 127.73790252 40.66652646 126.79492188 43.21875 C125.08315564 47.85094454 123.37044197 52.48278645 121.65646744 57.11416435 C117.35669381 68.73314994 113.07496006 80.35876681 108.79437256 91.98483276 C106.61373492 97.90685723 104.43179705 103.82840261 102.25 109.75 C101.37499387 112.12499774 100.49999387 114.49999774 99.625 116.875 C94.375 131.12500001 94.375 131.12500001 93.06256104 134.68733215 C92.1873557 137.06289095 91.31215225 139.43845044 90.43695068 141.81401062 C88.25260777 147.74296676 86.06823234 153.67191091 83.88378906 159.60083008 C79.90857324 170.39028445 75.93361706 181.17983417 71.95983887 191.96981812 C63.14310935 215.90979301 54.32153052 239.84792159 45.47338867 263.77630615 C36.85824102 287.07590048 28.27442057 310.38702633 19.68945312 333.69775391 C17.03826867 340.89634613 14.38642993 348.09469718 11.734375 355.29296875 C11.30151184 356.46787369 10.86864868 357.64277863 10.42266846 358.85328674 C8.25231239 364.74412684 6.08181572 370.63491509 3.91113281 376.52563477 C-0.17736892 387.62131383 -4.26459926 398.7174569 -8.34753418 409.81518555 C-10.03384906 414.39868644 -11.72077997 418.98196055 -13.40784454 423.56518555 C-14.55586202 426.68413601 -15.70341997 429.80325377 -16.8503418 432.92260742 C-29.60117695 467.60117695 -29.60117695 467.60117695 -31 469 C-32.82227687 469.09643778 -34.6483336 469.12187371 -36.47315979 469.12025452 C-38.25481537 469.12231651 -38.25481537 469.12231651 -40.07246399 469.12442017 C-41.38732285 469.12082489 -42.7021817 469.11722961 -44.05688477 469.11352539 C-45.44617714 469.11324352 -46.83546967 469.11340125 -48.22476196 469.1139679 C-52.00765289 469.11425588 -55.79051238 469.10835901 -59.57339597 469.10139394 C-63.52255677 469.09516055 -67.47171822 469.09455661 -71.42088318 469.09336853 C-78.90425075 469.09025517 -86.38760379 469.08204172 -93.87096494 469.07201904 C-102.38835733 469.06085805 -110.9057504 469.05534749 -119.42314827 469.05032361 C-136.94877394 469.03985911 -154.47438543 469.02225958 -172 469 C-171.5345519 467.42964382 -171.06757449 465.85974089 -170.59997559 464.2900238 C-170.34009605 463.41573447 -170.08021652 462.54144514 -169.81246185 461.64066219 C-168.55633365 457.55799637 -167.11508575 453.54897722 -165.65625 449.53515625 C-165.33520294 448.64576355 -165.01415588 447.75637085 -164.68338013 446.84002686 C-163.62540366 443.9130332 -162.56295715 440.98768826 -161.5 438.0625 C-160.94394073 436.52811783 -160.94394073 436.52811783 -160.37664795 434.96273804 C-154.16012202 417.81138296 -147.82045533 400.70728842 -141.43115234 383.61965942 C-135.38123731 367.43924285 -129.41121908 351.23158126 -123.5 335 C-117.23772664 317.80636126 -110.90611434 300.64056412 -104.5 283.5 C-98.05511988 266.25431309 -91.68053797 248.98462985 -85.375 231.6875 C-79.49195548 215.54992176 -73.58718079 199.42102418 -67.625 183.3125 C-67.28418396 182.39165619 -66.94336792 181.47081238 -66.59222412 180.52206421 C-66.07840179 179.13381943 -66.07840179 179.13381943 -65.55419922 177.7175293 C-64.85122472 175.81820115 -64.14826261 173.91886842 -63.4453125 172.01953125 C-63.09197845 171.06489487 -62.73864441 170.11025848 -62.37460327 169.12669373 C-57.73588048 156.58957182 -53.11920459 144.04432279 -48.5 131.5 C-42.17678003 114.32957814 -35.84566541 97.16214055 -29.5 80 C-19.64753731 53.34039508 -9.82561017 26.66951331 0 0 Z " fill="#D61820" transform="translate(746,845)"/>
<path d="M0 0 C44.22 0 88.44 0 134 0 C124.79050326 26.47730312 124.79050326 26.47730312 120.16894531 38.88208008 C117.97993758 44.76455705 115.79819191 50.64970778 113.6171875 56.53515625 C113.04387695 58.08123817 113.04387695 58.08123817 112.45898438 59.65855408 C108.36560327 70.70116732 104.30681898 81.75641443 100.25 92.8125 C84.21985678 136.48415866 68.11482875 180.12815855 51.97900391 223.76086426 C36.24302516 266.3130409 20.54688629 308.87984552 4.9100647 351.46856689 C-2.18599135 370.7948481 -9.2984456 390.11507199 -16.42089844 409.43164062 C-20.42477503 420.29107905 -24.42493839 431.15179724 -28.40625 442.01953125 C-29.38316863 444.6831384 -30.36030062 447.34666715 -31.33752441 450.01016235 C-31.94066577 451.65593137 -32.54281563 453.30206411 -33.1439209 454.94857788 C-33.95291794 457.16452506 -34.76513998 459.3792635 -35.578125 461.59375 C-36.02575195 462.81771484 -36.47337891 464.04167969 -36.93457031 465.30273438 C-38 468 -38 468 -39 469 C-40.72092653 469.09624593 -42.44583382 469.12187598 -44.16944885 469.12025452 C-45.28990601 469.12162918 -46.41036316 469.12300385 -47.56477356 469.12442017 C-48.80482651 469.12082489 -50.04487946 469.11722961 -51.32250977 469.11352539 C-53.26856613 469.11374443 -53.26856613 469.11374443 -55.25393677 469.1139679 C-58.82195929 469.11425586 -62.38994848 469.10835932 -65.95796323 469.10139394 C-69.6829062 469.09516021 -73.40784986 469.09455659 -77.13279724 469.09336853 C-84.19117363 469.09025527 -91.2495346 469.08204195 -98.30790418 469.07201904 C-106.34162971 469.06085774 -114.37535596 469.05534741 -122.4090873 469.05032361 C-138.93940057 469.03985934 -155.46969832 469.02226 -172 469 C-171.5345519 467.42964382 -171.06757449 465.85974089 -170.59997559 464.2900238 C-170.34009605 463.41573447 -170.08021652 462.54144514 -169.81246185 461.64066219 C-168.55633365 457.55799637 -167.11508575 453.54897722 -165.65625 449.53515625 C-165.33520294 448.64576355 -165.01415588 447.75637085 -164.68338013 446.84002686 C-163.62540366 443.9130332 -162.56295715 440.98768826 -161.5 438.0625 C-160.94394073 436.52811783 -160.94394073 436.52811783 -160.37664795 434.96273804 C-154.15975854 417.81038014 -147.81924572 400.70547883 -141.43014526 383.61663818 C-135.40432103 367.49870973 -129.45321146 351.35528602 -123.5625 335.1875 C-117.13291432 317.54392147 -110.65601672 299.91879317 -104.125 282.3125 C-97.2503153 263.77835005 -90.39334674 245.23785595 -83.5625 226.6875 C-83.12778381 225.5070108 -82.69306763 224.32652161 -82.24517822 223.11026001 C-80.04354378 217.13138949 -77.84224513 211.15239541 -75.64111328 205.17333984 C-71.69985772 194.46800068 -67.75556046 183.76378216 -63.81149292 173.05947876 C-61.62420406 167.12303173 -59.43711199 161.1865122 -57.25 155.25 C-56.37500094 152.87499965 -55.50000094 150.49999965 -54.625 148.125 C-54.191875 146.949375 -53.75875 145.77375 -53.3125 144.5625 C-49.375 133.87499999 -49.375 133.87499999 -48.06266785 130.31295776 C-47.18710647 127.93643258 -46.31154699 125.5599067 -45.43598938 123.18338013 C-43.25709383 117.26920976 -41.07816617 111.35505123 -38.89916992 105.44091797 C-34.85934359 94.4761012 -30.81980664 83.51117809 -26.78140259 72.5458374 C-25.13812654 68.08391429 -23.49469015 63.62205024 -21.85122108 59.16019821 C-20.74296666 56.15136257 -19.63482554 53.14248528 -18.52685547 50.13354492 C-18.1145166 49.01375244 -17.70217773 47.89395996 -17.27734375 46.74023438 C-16.74318848 45.28949524 -16.74318848 45.28949524 -16.19824219 43.80944824 C-10.81526239 29.20008339 -5.40755328 14.60039387 0 0 Z " fill="#6C6D70" transform="translate(2587,845)"/>
<path d="M0 0 C43.89 0 87.78 0 133 0 C131.87507441 6.74955356 131.87507441 6.74955356 130.65917969 9.99926758 C130.24914452 11.10755669 130.24914452 11.10755669 129.83082581 12.23823547 C129.53087204 13.03231308 129.23091827 13.82639069 128.921875 14.64453125 C128.60351181 15.50084641 128.28514862 16.35716156 127.95713806 17.23942566 C126.89291482 20.09894005 125.82132296 22.95563878 124.75 25.8125 C123.98740932 27.85849007 123.22546171 29.90471994 122.46411133 31.95117188 C121.25125318 35.21104148 120.03798621 38.470753 118.8228302 41.72976685 C114.51667081 53.28055419 110.25989735 64.84937806 106.00476074 76.41903687 C98.69560533 96.28891931 91.35874884 116.14843658 84 136 C70.23537713 173.13503779 56.55707988 210.30183123 42.90621948 247.4788208 C28.67694135 286.23003751 14.39467872 324.96174283 0.07579041 363.67993164 C-2.33994708 370.21280054 -4.75254715 376.74682131 -7.1640625 383.28125 C-17.72038936 411.87538213 -28.35885026 440.43691386 -39 469 C-82.89 469 -126.78 469 -172 469 C-170.59930353 462.69686588 -169.08369406 457.03013601 -166.82421875 451.0625 C-166.34859245 449.78385071 -166.34859245 449.78385071 -165.86335754 448.47937012 C-164.81002708 445.65090921 -163.74864013 442.82553921 -162.6875 440 C-161.93160556 437.97356309 -161.17641471 435.94686361 -160.421875 433.91992188 C-159.21914081 430.68927723 -158.01593653 427.45881507 -156.81063843 424.22912598 C-152.44949149 412.54154501 -148.14108711 400.83468036 -143.8343811 389.12695312 C-141.59964054 383.05275194 -139.36239684 376.97947317 -137.125 370.90625 C-136.68823441 369.72063477 -136.25146881 368.53501953 -135.8014679 367.31347656 C-131.70888072 356.20606072 -127.60573372 345.10256171 -123.5 334 C-117.23838603 317.06677272 -110.99031617 300.12858762 -104.75 283.1875 C-104.3111145 281.99603363 -103.872229 280.80456726 -103.42004395 279.57699585 C-100.27969425 271.05145395 -97.13979767 262.52574521 -94 254 C-90.41697364 244.27072025 -86.83375385 234.54151181 -83.25 224.8125 C-82.59118835 223.0239711 -82.59118835 223.0239711 -81.91906738 221.1993103 C-75.7810007 204.53688361 -69.63195557 187.87855309 -63.47338867 171.22369385 C-57.55437058 155.21575921 -51.64932568 139.20270171 -45.75 123.1875 C-45.31244385 121.99968933 -44.8748877 120.81187866 -44.42407227 119.58807373 C-40.35797014 108.54977599 -36.29256357 97.51122219 -32.22851562 86.47216797 C-13.98285797 36.91213138 -13.98285797 36.91213138 -7.09375 18.33758545 C-6.53805902 16.83922164 -5.9827117 15.34073033 -5.42773438 13.84210205 C-4.68738359 11.84351086 -3.94553911 9.84548173 -3.203125 7.84765625 C-2.59452637 6.2080896 -2.59452637 6.2080896 -1.97363281 4.53540039 C-1 2 -1 2 0 0 Z " fill="#6C6D70" transform="translate(1942,845)"/>
<path d="M0 0 C10.47323056 8.94588444 16.38694173 18.80820427 17.8203125 32.703125 C18.2617485 46.97622233 14.11715771 59.19078203 4.69921875 69.984375 C-4.52390409 78.87175247 -16.87311003 83.68131158 -29.5625 83.9921875 C-43.45802927 83.35366208 -55.60481739 78.84632402 -65.5625 68.9921875 C-75.48692373 57.35337195 -78.38489908 45.0505416 -77.73730469 30.12060547 C-76.80582003 18.77886913 -70.39778069 9.41615164 -62.375 1.7421875 C-44.48651639 -13.31217519 -18.58638099 -14.56310949 0 0 Z M-57.5625 12.9921875 C-63.82961881 20.47958666 -65.95450803 29.86493152 -65.5625 39.4921875 C-64.49745861 49.22970878 -60.87485063 58.42542994 -53.3359375 64.90625 C-44.25097253 71.38705563 -35.77013017 74.14827543 -24.5625 72.9921875 C-15.66825613 71.38962104 -7.96443613 67.33152555 -2.25 60.2421875 C4.63944249 50.15680919 6.53365493 39.81688441 4.375 27.8671875 C1.80973508 17.33004548 -3.9176781 10.40414091 -12.5625 3.9921875 C-28.14407816 -4.99598832 -46.11458977 0.34477197 -57.5625 12.9921875 Z " fill="#6D6D70" transform="translate(3787.5625,850.0078125)"/>
<path d="M0 0 C0.9075 -0.020625 1.815 -0.04125 2.75 -0.0625 C8.75268342 -0.0970976 13.17809403 0.67277268 18.625 3.25 C21.56337055 6.40874834 22.87041663 8.9978307 23.1875 13.25 C22.9543068 17.93180196 20.9121661 20.03927963 17.625 23.25 C16.635 23.91 15.645 24.57 14.625 25.25 C15.7696875 26.24 15.7696875 26.24 16.9375 27.25 C22.45736184 32.81664033 23.28587302 40.83329673 24.625 48.25 C20.665 48.25 16.705 48.25 12.625 48.25 C12.191875 47.095 11.75875 45.94 11.3125 44.75 C11.03277344 44.02554688 10.75304688 43.30109375 10.46484375 42.5546875 C9.625 40.25 9.625 40.25 9.00390625 38.0078125 C8.37959655 35.89058829 7.79204769 34.12625359 6.625 32.25 C3.05862816 30.72155493 0.48092832 30.25 -3.375 30.25 C-3.705 36.19 -4.035 42.13 -4.375 48.25 C-8.335 48.25 -12.295 48.25 -16.375 48.25 C-16.375 32.74 -16.375 17.23 -16.375 1.25 C-10.76494786 0.31499131 -5.65096377 0.03183642 0 0 Z M-4.375 9.25 C-4.44744053 11.26964199 -4.45877188 13.29167124 -4.4375 15.3125 C-4.42847656 16.41722656 -4.41945313 17.52195312 -4.41015625 18.66015625 C-4.39855469 19.51480469 -4.38695313 20.36945312 -4.375 21.25 C2.52788609 21.82401153 2.52788609 21.82401153 8.75 19.25 C9.678125 18.26 9.678125 18.26 10.625 17.25 C10.32703088 12.75577909 10.32703088 12.75577909 7.5625 9.375 C4.35161166 8.14529808 -1.63051593 6.50551593 -4.375 9.25 Z " fill="#6D6C6F" transform="translate(3755.375,862.75)"/>
</svg>
