<?xml version="1.0" encoding="UTF-8"?>
<svg version="1.1" xmlns="http://www.w3.org/2000/svg" width="944" height="363">
<path d="M0 0 C2.79214592 2.88102059 4.54267886 5.58262697 5.47265625 9.51953125 C5.26891901 11.73035567 5.03711218 13.93868183 4.78515625 16.14453125 C4.64902171 19.77348904 4.6433721 22.35792254 6.79833984 25.37646484 C10.42818216 29.27052087 14.53060303 32.6179283 18.64794922 35.97998047 C23.74007009 40.27632971 27.75383561 45.4330225 31.41015625 50.95703125 C33.70161303 54.14240798 35.3134329 55.07509536 39.16015625 55.83203125 C39.90652344 55.91066406 40.65289063 55.98929688 41.421875 56.0703125 C43.97774507 56.63016975 44.87021694 57.48138336 46.47265625 59.51953125 C47.63752679 63.01414288 47.61153151 65.77416296 47.63037109 69.46264648 C47.63545181 70.16557327 47.64053253 70.86850006 47.64576721 71.59272766 C47.65646578 73.11995131 47.66508798 74.64719058 47.67188644 76.17443657 C47.68370911 78.601811 47.70317551 81.02901019 47.7250061 83.45631409 C47.78647298 90.35842936 47.8404312 97.26053019 47.87402344 104.1628418 C47.8951348 108.38751027 47.93057686 112.61186429 47.97478104 116.83635139 C47.98882269 118.43685225 47.99763634 120.03740881 48.00083542 121.63796806 C48.03539871 137.28945569 49.89139449 151.93826949 61.47265625 163.51953125 C71.56379568 170.37389011 82.30069143 172.12997226 94.3203125 170.01953125 C103.7090994 167.46554903 110.90205589 162.52217421 116.47265625 154.51953125 C124.39556298 140.32956338 124.64659787 125.39205344 124.5 109.49609375 C124.49059141 107.50333452 124.48119446 105.51057516 124.47248936 103.51781273 C124.44970613 98.65422609 124.41571258 93.79072715 124.37670898 88.92724609 C124.35508639 86.17857893 124.3388362 83.42997562 124.32826233 80.6812439 C124.317942 78.10471856 124.29940832 75.5282099 124.27171326 72.95181274 C124.26664513 71.20376846 124.26664513 71.20376846 124.26147461 69.42041016 C124.25401718 68.39879791 124.24655975 67.37718567 124.23887634 66.32461548 C124.58295168 62.19611573 125.41590207 59.4208804 128.59765625 56.70703125 C132.3473674 55.15823751 135.46958638 54.9049185 139.47265625 55.51953125 C144.04210069 57.65842014 144.04210069 57.65842014 145.47265625 60.51953125 C145.57383718 62.14259365 145.61209448 63.76975557 145.61982727 65.39595032 C145.63056023 66.94164703 145.63056023 66.94164703 145.64151001 68.51856995 C145.64419891 69.65366501 145.64688782 70.78876007 145.6496582 71.95825195 C145.6562294 73.15020172 145.6628006 74.34215149 145.66957092 75.57022095 C145.68933895 79.52857825 145.70097373 83.48692232 145.7109375 87.4453125 C145.71498492 88.80786853 145.71910184 90.17042435 145.72328758 91.53297997 C145.74234023 97.93433806 145.75657104 104.33568461 145.76489955 110.73706561 C145.77467243 118.12664689 145.80099257 125.51592866 145.84140044 132.90540439 C145.87156001 138.61673084 145.88636826 144.32797142 145.88968056 150.03937596 C145.89203132 153.45069009 145.90099418 156.86168427 145.92614174 160.27291298 C145.95040055 164.07972897 145.94959197 167.88575789 145.94262695 171.69262695 C145.96184204 173.38616051 145.96184204 173.38616051 145.98144531 175.11390686 C145.930612 182.71951419 145.930612 182.71951419 143.65422058 186.69621277 C140.57800929 189.26726365 138.4529949 189.51953125 134.47265625 189.51953125 C131.40149474 188.41854882 129.2549036 187.62658718 127.34375 184.921875 C126.07997475 181.43657554 126.003174 177.93715819 125.84765625 174.26953125 C125.80898438 173.52445313 125.7703125 172.779375 125.73046875 172.01171875 C125.63660517 170.18137885 125.55355907 168.35048982 125.47265625 166.51953125 C124.99957031 167.16019531 124.52648437 167.80085937 124.0390625 168.4609375 C113.9189459 181.69797111 102.94830962 188.17315337 86.47265625 190.51953125 C70.72165723 191.71254448 56.50815686 188.71863433 44.28515625 178.39453125 C31.07860953 165.85142172 27.39130753 150.15297199 26.47265625 132.51953125 C26.36719952 127.05390732 26.38391127 121.5913212 26.41015625 116.125 C26.41356511 114.62546381 26.41651624 113.12592652 26.41902161 111.62638855 C26.44662873 99.0353265 26.44662873 99.0353265 26.54443359 92.99145508 C26.60517485 89.1444678 26.61610759 85.29997757 26.59573364 81.45260048 C26.59699368 80.00905876 26.61579284 78.56540192 26.65402222 77.12236595 C26.95761992 65.20318184 23.27883282 59.00873888 15.47265625 50.51953125 C14.13570764 48.91837639 12.80157439 47.31485744 11.47265625 45.70703125 C5.15626743 38.73850165 5.15626743 38.73850165 -2.52734375 33.51953125 C-5.52084613 34.24627427 -5.52084613 34.24627427 -8.52734375 35.51953125 C-14.93152995 36.16161763 -21.18866573 36.49250094 -26.52734375 32.51953125 C-34.47561961 24.57125539 -34.47561961 24.57125539 -34.58984375 17.83203125 C-34.56921875 16.73890625 -34.54859375 15.64578125 -34.52734375 14.51953125 C-69.5304663 5.47230008 -104.92867413 4.26869009 -137.41455078 22.58349609 C-156.76316457 34.02666004 -171.46910192 48.6951417 -183.52734375 67.51953125 C-182.07489139 69.96327157 -180.61177081 72.38962615 -179.0625 74.7734375 C-172.50480777 85.05353327 -169.40160431 95.68344251 -169.33447266 107.82641602 C-169.32220642 109.0614537 -169.32220642 109.0614537 -169.30969238 110.32144165 C-169.28496228 113.03459967 -169.26836049 115.74770609 -169.25390625 118.4609375 C-169.24858257 119.38912733 -169.2432589 120.31731716 -169.2377739 121.27363396 C-169.21110516 126.18005419 -169.19170425 131.08644945 -169.17724609 135.99291992 C-169.16387112 140.05434511 -169.13594456 144.11527213 -169.09521484 148.17651367 C-169.04600311 153.08416314 -169.02114059 157.99135862 -169.01401901 162.89924431 C-169.00729479 164.76880799 -168.99204239 166.63836107 -168.9681282 168.50778389 C-168.93660229 171.11974548 -168.93641955 173.72994012 -168.94384766 176.34204102 C-168.92744232 177.11461746 -168.91103699 177.88719391 -168.89413452 178.68318176 C-168.93910844 182.54059334 -169.17874958 184.16036855 -171.91146851 186.97593689 C-175.88601027 189.3212629 -178.13150305 189.85453302 -182.65234375 188.76953125 C-186.1496508 187.24896297 -187.83436055 185.90549765 -189.52734375 182.51953125 C-189.62792371 180.26061413 -189.66296962 177.99869548 -189.66918945 175.73754883 C-189.67266388 175.03958694 -189.67613831 174.34162506 -189.67971802 173.62251282 C-189.68708088 172.10236727 -189.69242343 170.58221093 -189.69600868 169.06205177 C-189.7031895 166.6423292 -189.71887476 164.22280764 -189.73735046 161.80314636 C-189.78969556 154.92128516 -189.837636 148.039526 -189.85327148 141.1574707 C-189.86346391 136.94684347 -189.89308199 132.73671127 -189.93459129 128.52628136 C-189.94676334 126.93384265 -189.95204829 125.3413335 -189.94979286 123.74884987 C-189.93366942 108.62693425 -191.46505486 93.93249935 -202.4453125 82.52734375 C-210.11698678 75.37502847 -218.11412832 73.16891597 -228.4921875 73.30859375 C-239.77303362 74.09259078 -248.44156987 78.03913935 -256.27734375 86.14453125 C-265.80455121 97.72749345 -266.81621063 112.22349265 -266.77117348 126.57291603 C-266.76551142 128.89820607 -266.77484642 131.22301005 -266.78837585 133.54826355 C-266.82524209 140.15126059 -266.84399889 146.75408021 -266.83276367 153.35717773 C-266.82690959 157.41493502 -266.8451706 161.47199315 -266.87865257 165.52960777 C-266.88658958 167.06892632 -266.88535257 168.60832141 -266.87462807 170.14762306 C-266.86028031 172.29686384 -266.87658204 174.44389839 -266.8996582 176.59301758 C-266.90028763 177.81305984 -266.90091705 179.03310211 -266.90156555 180.29011536 C-267.704427 184.4333941 -269.2853356 185.90477285 -272.52734375 188.51953125 C-276.5055408 189.90325196 -278.24936292 189.61219153 -282.27734375 188.26953125 C-285.52734375 186.51953125 -285.52734375 186.51953125 -287.52734375 183.51953125 C-287.78740597 181.24341774 -287.78740597 181.24341774 -287.80149841 178.52285767 C-287.81147354 177.49101852 -287.82144867 176.45917938 -287.83172607 175.39607239 C-287.83239075 174.2645726 -287.83305542 173.13307281 -287.83374023 171.96728516 C-287.84206375 170.77518936 -287.85038727 169.58309357 -287.85896301 168.35487366 C-287.87895087 165.08412717 -287.88970748 161.81352832 -287.89478946 158.5427289 C-287.89843254 156.49887642 -287.90467234 154.45504844 -287.91179085 152.41120529 C-287.93628712 145.27965977 -287.94933758 138.148187 -287.95288086 131.01660156 C-287.95651616 124.37096988 -287.98641005 117.72580003 -288.02828544 111.08030951 C-288.06298592 105.37319565 -288.07842925 99.66623485 -288.07912689 93.9590162 C-288.07991983 90.5510124 -288.08866445 87.14347899 -288.11712456 83.73558426 C-288.14392021 79.93350032 -288.13924723 76.13269592 -288.12670898 72.33056641 C-288.14154327 71.20311508 -288.15637756 70.07566376 -288.17166138 68.91404724 C-288.09171559 60.41905521 -288.09171559 60.41905521 -285.11878967 57.32284546 C-282.6293122 55.59048822 -281.50763525 54.83444473 -278.52734375 54.89453125 C-277.88796875 54.88164063 -277.24859375 54.86875 -276.58984375 54.85546875 C-273.15382846 55.96176155 -271.71147504 57.6695509 -269.52734375 60.51953125 C-268.66846967 63.60200666 -268.42351504 66.64665148 -268.21484375 69.83203125 C-268.14201172 70.66798828 -268.06917969 71.50394531 -267.99414062 72.36523438 C-267.81844274 74.41504308 -267.6701354 76.46716773 -267.52734375 78.51953125 C-267.07746094 77.81828125 -266.62757813 77.11703125 -266.1640625 76.39453125 C-258.52041656 65.12053644 -248.75237552 57.69188232 -235.328125 54.83984375 C-219.8480316 52.21488018 -206.84108141 53.87024177 -192.52734375 60.51953125 C-192.27855469 59.80925781 -192.02976562 59.09898438 -191.7734375 58.3671875 C-183.36189026 39.14456073 -162.28842776 22.38229968 -144.52734375 12.51953125 C-143.62508057 12.01510498 -143.62508057 12.01510498 -142.70458984 11.50048828 C-111.3424615 -5.80191422 -74.59151218 -9.27855851 -40.23632812 0.51879883 C-36.98586561 1.47727726 -33.75470114 2.48595983 -30.52734375 3.51953125 C-30.264375 2.90464844 -30.00140625 2.28976563 -29.73046875 1.65625 C-27.43231071 -2.42521899 -23.00629352 -4.02035104 -18.71484375 -5.35546875 C-11.89137327 -5.62305583 -5.37288672 -4.40754537 0 0 Z " fill="#000000" transform="translate(538.52734375,50.48046875)"/>
<path d="M0 0 C18.57905794 -0.50616023 37.12316728 5.37753083 50.82421875 18.19921875 C62.70736004 30.45604373 70.61175814 45.90922395 71.6875 63.12109375 C71.76677734 64.29671875 71.76677734 64.29671875 71.84765625 65.49609375 C72.50768568 84.78043194 65.95407869 101.28991659 53.40625 115.75 C40.90948237 129.03795908 24.8543475 136.32157859 6.7421875 137.34375 C-13.74671282 137.9490664 -31.17087198 132.58059338 -46.75390625 118.9921875 C-60.65346504 105.8452275 -66.93978269 88.77167119 -67.625 69.87109375 C-67.0456735 48.86288557 -59.41408029 31.57533329 -44.1875 16.99609375 C-31.43603155 6.19124742 -16.62014613 0.87031171 0 0 Z M24.6875 25.12109375 C25.16960937 26.09949219 25.65171875 27.07789063 26.1484375 28.0859375 C32.08638338 40.32601493 36.17278895 51.12152182 31.7265625 64.66796875 C28.50956894 72.26297611 22.40070705 78.39239493 15.3125 82.49609375 C9.78250358 83.81275956 5.3435098 83.99426256 0.25 81.30859375 C-2.85969935 78.65397235 -4.13080176 76.84788672 -5.125 72.87109375 C-5.35080363 68.35502121 -4.49933988 66.05740553 -2.3125 62.12109375 C-0.68800757 60.41329402 0.97970027 58.74558618 2.6875 57.12109375 C5.36507585 53.79221567 6.59094528 51.80904616 7.1875 47.55859375 C6.5995489 43.51642992 5.59318828 41.94606847 2.6875 39.12109375 C-0.83433839 36.57079699 -4.06567769 36.64161381 -8.3125 37.12109375 C-15.91001972 39.81815305 -21.69958888 43.81297509 -25.3046875 51.13671875 C-30.08251572 63.05853773 -28.98259145 74.35188495 -24.3125 86.12109375 C-19.60839549 95.85465869 -13.42815449 103.03085085 -3.3125 107.12109375 C6.95448591 110.54342239 17.60703596 107.16838207 27.15625 103.05859375 C37.16703152 97.98270453 46.24631052 89.51536701 50.6875 79.12109375 C53.5666303 66.44098623 50.68915838 53.35022822 44.62890625 42.01953125 C40.07678611 35.22340823 33.97677107 28.92148294 26.6875 25.12109375 C26.0275 25.12109375 25.3675 25.12109375 24.6875 25.12109375 Z " fill="#000000" transform="translate(465.3125,103.87890625)"/>
<path d="M0 0 C0.59167969 0.47695312 1.18335938 0.95390625 1.79296875 1.4453125 C10.92584608 9.46934159 16.16867282 23.17142911 17.17764664 35.10027122 C17.4705227 40.93847296 17.44610121 46.78100701 17.43359375 52.625 C17.43816271 54.50398954 17.4434704 56.3829774 17.44947815 58.26196289 C17.45835968 62.17519991 17.45603813 66.08823222 17.44604492 70.00146484 C17.4344854 75.01635572 17.45489789 80.03054971 17.48396206 85.04534912 C17.50228457 88.91437247 17.50204082 92.78322689 17.49632454 96.65228271 C17.49617125 98.50226834 17.50222225 100.35226535 17.51461601 102.20220947 C17.52947198 104.77978956 17.51889439 107.35605525 17.50170898 109.93359375 C17.51137695 110.69517288 17.52104492 111.45675201 17.53100586 112.2414093 C17.48280823 115.68861333 17.26517412 117.64299825 15.18348694 120.44555664 C12.09629241 122.6433573 9.76410461 122.93396308 6 123 C3.09600373 121.77386824 1.53753652 120.77942795 -0.25 118.1875 C-1.17590345 115.48694827 -1.61486075 112.82435451 -2 110 C-2.4846875 110.38671875 -2.969375 110.7734375 -3.46875 111.171875 C-18.65651624 122.97160108 -36.25979571 125.610982 -55.10058594 123.79785156 C-68.74671838 122.0190886 -80.95042431 116.57659113 -90 106 C-96.08367653 96.2611614 -98.54620063 86.79237815 -96.5390625 75.37890625 C-93.56694177 64.17226279 -86.37894704 55.5309324 -76.55078125 49.49609375 C-59.56471673 40.56307709 -39.26697273 39.45225273 -21 45 C-14.60676733 47.56017506 -8.39689282 50.69299064 -3 55 C-4.04566673 32.72005942 -4.04566673 32.72005942 -15 14 C-25.12693552 5.66273843 -37.44238006 4.95715267 -50 6 C-59.15088923 7.37607357 -67.13225886 11.71621826 -75.12890625 16.19140625 C-78.28630814 17.55587846 -80.74587514 16.81353121 -84 16 C-87.27577012 13.81615326 -87.87852433 12.53651754 -88.75 8.6875 C-87.6160789 3.11238792 -84.62879659 1.06776548 -80 -2 C-56.52253197 -15.75677303 -21.70898083 -19.35035542 0 0 Z M-72.375 69.5 C-75.99031795 75.06202761 -76.70380309 80.51181523 -76 87 C-74.7006894 92.66418213 -72.45924212 96.17779247 -68 100 C-67.278125 100.680625 -66.55625 101.36125 -65.8125 102.0625 C-54.7858704 109.65862261 -41.41715263 110.23469335 -28.484375 108.5390625 C-19.81016957 106.79188842 -11.52064524 103.75387107 -6 96.5 C-2.19620112 90.35746965 -0.85001629 84.05413008 -2.46484375 76.95703125 C-4.86180084 69.62432819 -9.06193483 64.76671396 -15.875 61.1875 C-34.06785486 52.3912847 -58.29825394 54.68237257 -72.375 69.5 Z " fill="#000000" transform="translate(905,117)"/>
<path d="M0 0 C3.85097923 1.60991056 6.67213485 4.19160951 9.6875 7 C10.21424316 7.48766846 10.74098633 7.97533691 11.28369141 8.4777832 C17.49716725 14.30421167 23.30127308 20.3748813 28 27.5 C30.26405046 30.66459714 31.87507496 31.557382 35.6875 32.3125 C36.43386719 32.39113281 37.18023438 32.46976563 37.94921875 32.55078125 C40.50508882 33.1106385 41.39756069 33.96185211 43 36 C44.16487054 39.49461163 44.13887526 42.25463171 44.15771484 45.94311523 C44.16279556 46.64604202 44.16787628 47.34896881 44.17311096 48.07319641 C44.18380953 49.60042006 44.19243173 51.12765933 44.19923019 52.65490532 C44.21105286 55.08227975 44.23051926 57.50947894 44.25234985 59.93678284 C44.31381673 66.83889811 44.36777495 73.74099894 44.40136719 80.64331055 C44.42247855 84.86797902 44.45792061 89.09233304 44.50212479 93.31682014 C44.51616644 94.917321 44.52498009 96.51787756 44.52817917 98.11843681 C44.56274246 113.76992444 46.41873824 128.41873824 58 140 C68.09113943 146.85435886 78.82803518 148.61044101 90.84765625 146.5 C100.23644315 143.94601778 107.42939964 139.00264296 113 131 C120.92290673 116.81003213 121.17394162 101.87252219 121.02734375 85.9765625 C121.01793516 83.98380327 121.00853821 81.99104391 120.99983311 79.99828148 C120.97704988 75.13469484 120.94305633 70.2711959 120.90405273 65.40771484 C120.88243014 62.65904768 120.86617995 59.91044437 120.85560608 57.16171265 C120.84528575 54.58518731 120.82675207 52.00867865 120.79905701 49.43228149 C120.79567825 48.26691864 120.7922995 47.10155579 120.78881836 45.90087891 C120.78136093 44.87926666 120.7739035 43.85765442 120.76622009 42.80508423 C121.11029543 38.67658448 121.94324582 35.90134915 125.125 33.1875 C128.87471115 31.63870626 131.99693013 31.38538725 136 32 C140.56944444 34.13888889 140.56944444 34.13888889 142 37 C142.10118093 38.6230624 142.13943823 40.25022432 142.14717102 41.87641907 C142.15790398 43.42211578 142.15790398 43.42211578 142.16885376 44.9990387 C142.17154266 46.13413376 142.17423157 47.26922882 142.17700195 48.4387207 C142.18357315 49.63067047 142.19014435 50.82262024 142.19691467 52.0506897 C142.2166827 56.009047 142.22831748 59.96739107 142.23828125 63.92578125 C142.24232867 65.28833728 142.24644559 66.6508931 142.25063133 68.01344872 C142.26968398 74.41480681 142.28391479 80.81615336 142.2922433 87.21753436 C142.30201618 94.60711564 142.32833632 101.99639741 142.36874419 109.38587314 C142.39890376 115.09719959 142.41371201 120.80844017 142.41702431 126.51984471 C142.41937507 129.93115884 142.42833793 133.34215302 142.45348549 136.75338173 C142.4777443 140.56019772 142.47693572 144.36622664 142.4699707 148.1730957 C142.48918579 149.86662926 142.48918579 149.86662926 142.50878906 151.59437561 C142.45795575 159.19998294 142.45795575 159.19998294 140.18156433 163.17668152 C137.10535304 165.7477324 134.98033865 166 131 166 C127.92883849 164.89901757 125.78224735 164.10705593 123.87109375 161.40234375 C122.6073185 157.91704429 122.53051775 154.41762694 122.375 150.75 C122.33632813 150.00492188 122.29765625 149.25984375 122.2578125 148.4921875 C122.16394892 146.6618476 122.08090282 144.83095857 122 143 C121.52691406 143.64066406 121.05382812 144.28132812 120.56640625 144.94140625 C110.44628965 158.17843986 99.47565337 164.65362212 83 167 C67.24900098 168.19301323 53.03550061 165.19910308 40.8125 154.875 C27.60595328 142.33189047 23.91865128 126.63344074 23 109 C22.89454327 103.53437607 22.91125502 98.07178995 22.9375 92.60546875 C22.94090886 91.10593256 22.94385999 89.60639527 22.94636536 88.1068573 C22.97397248 75.51579525 22.97397248 75.51579525 23.07177734 69.47192383 C23.1325186 65.62493655 23.14345134 61.78044632 23.12307739 57.93306923 C23.12433743 56.48952751 23.14313659 55.04587067 23.18136597 53.6028347 C23.48496367 41.68365059 19.80617657 35.48920763 12 27 C10.66238208 25.39940425 9.32809683 23.79600468 8 22.1875 C3.80324335 17.54354797 -1.00863892 13.75374901 -6 10 C-4.28564986 6.44774296 -2.22257977 3.25978366 0 0 Z " fill="#000000" transform="translate(542,74)"/>
<path d="M0 0 C13.43763656 -0.54847496 26.01666615 3.7431582 36.16796875 12.4140625 C40.56967012 16.58119044 43.97519408 20.87263802 46.91796875 26.1640625 C47.29566406 26.83695313 47.67335938 27.50984375 48.0625 28.203125 C54.37742829 40.83298158 54.3935881 55.17480019 54.38671875 68.953125 C54.39383936 70.71333044 54.40154105 72.47353362 54.40979004 74.23373413 C54.42311827 77.88945012 54.42485239 81.54495036 54.41894531 85.20068359 C54.41300092 89.88035315 54.44388826 94.55900244 54.48406219 99.23847389 C54.50989459 102.85877036 54.51282181 106.47881765 54.50917053 110.09919357 C54.51085996 111.82556133 54.52048549 113.5519408 54.53831482 115.27821732 C54.56046227 117.68309313 54.55083328 120.08585391 54.53320312 122.49072266 C54.54646637 123.19723969 54.55972961 123.90375671 54.57339478 124.63168335 C54.50803485 128.470478 54.00436651 130.05721441 51.5592041 133.08114624 C48.4457232 135.53648215 46.87654871 136.1640625 42.91796875 136.1640625 C38.56810584 134.7141082 36.48540425 134.01521575 33.91796875 130.1640625 C33.65968323 127.20880127 33.65968323 127.20880127 33.64672852 123.54394531 C33.64150177 122.87509811 33.63627502 122.20625092 33.63088989 121.51713562 C33.62064907 120.06359451 33.61486934 118.61001673 33.6130085 117.15644073 C33.60933434 114.84156945 33.59257161 112.52712272 33.57225037 110.21234131 C33.51699287 103.63008619 33.48642632 97.04776475 33.46166992 90.46533203 C33.44560191 86.43518252 33.41516983 82.40532454 33.37690544 78.37532806 C33.365403 76.85266011 33.35932641 75.32993948 33.35922432 73.80722809 C33.35796712 60.02443332 32.51361384 46.12502086 24.91796875 34.1640625 C24.510625 33.51953125 24.10328125 32.875 23.68359375 32.2109375 C19.13213104 26.05307619 11.69078942 22.3773676 4.3671875 20.515625 C-7.2210584 18.85224042 -17.94865855 21.00332647 -27.796875 27.38671875 C-38.57032776 35.7660709 -41.86344249 48.30421187 -43.65562439 61.21376038 C-44.28673765 67.06049568 -44.36238726 72.86814187 -44.35642624 78.74495316 C-44.35544046 80.88966912 -44.36863065 83.03391134 -44.38540649 85.17855835 C-44.43112622 91.26337391 -44.45633491 97.34812309 -44.46289062 103.43310547 C-44.46790115 107.18419667 -44.49209445 110.93476601 -44.52821732 114.68568039 C-44.53799528 116.10579677 -44.54035816 117.52598493 -44.53504562 118.94612503 C-44.52798425 120.92194608 -44.54733268 122.89780823 -44.56787109 124.87353516 C-44.57214615 126.55559555 -44.57214615 126.55559555 -44.57650757 128.27163696 C-45.19731055 131.82364941 -46.26302464 132.98303885 -49.08203125 135.1640625 C-53.67781928 136.5627806 -56.71935058 136.10303169 -61.08203125 134.1640625 C-63.03250067 132.54988091 -63.95221818 131.42368864 -65.08203125 129.1640625 C-65.18094253 127.57894628 -65.21708366 125.98972514 -65.22247314 124.40153503 C-65.23103836 122.89370201 -65.23103836 122.89370201 -65.23977661 121.35540771 C-65.24089447 120.24836487 -65.24201233 119.14132202 -65.24316406 118.00073242 C-65.24812897 116.83804337 -65.25309387 115.67535431 -65.25820923 114.47743225 C-65.27285977 110.61645931 -65.27963774 106.75552746 -65.28515625 102.89453125 C-65.28945318 100.89478163 -65.29375062 98.89503201 -65.29813075 96.89528257 C-65.30994735 91.32152403 -65.31748097 85.74777548 -65.32092595 80.17400569 C-65.32540533 72.96615857 -65.34294645 65.75850122 -65.37192655 58.55071181 C-65.3935486 52.97951023 -65.40363053 47.40836201 -65.40496707 41.83711892 C-65.40601488 38.50969231 -65.41336246 35.18248465 -65.42978668 31.855093 C-65.44680703 28.14177384 -65.4449764 24.42891832 -65.43847656 20.71557617 C-65.44769135 19.61460602 -65.45690613 18.51363586 -65.46640015 17.37930298 C-65.43008707 10.7696994 -64.89075681 6.97278806 -60.08203125 2.1640625 C-57.04498557 1.65984256 -54.12400531 1.70939022 -51.08203125 2.1640625 C-48.58042307 4.04026863 -47.46257473 5.40297553 -46.08203125 8.1640625 C-45.84928916 11.04316838 -45.66230368 13.90552745 -45.51953125 16.7890625 C-45.47634766 17.59085938 -45.43316406 18.39265625 -45.38867188 19.21875 C-45.28251668 21.2003136 -45.1817627 23.18216521 -45.08203125 25.1640625 C-44.68113281 24.6071875 -44.28023437 24.0503125 -43.8671875 23.4765625 C-34.85578763 11.37962662 -24.20678814 3.25430156 -8.97265625 0.828125 C-5.98721155 0.44722343 -2.99931158 0.2363435 0 0 Z " fill="#000000" transform="translate(159.08203125,103.8359375)"/>
<path d="M0 0 C0.92039062 -0.01998047 1.84078125 -0.03996094 2.7890625 -0.06054688 C9.48032949 -0.05583472 15.13176829 1.1190052 21 4.4375 C23.1484375 6.6640625 23.1484375 6.6640625 24.375 9.0625 C24.83003906 9.93648437 25.28507812 10.81046875 25.75390625 11.7109375 C31.02754324 23.25011812 34.14179179 33.51556958 30.03515625 45.98828125 C26.66970408 53.95106808 19.94636124 60.52041516 12.5625 64.875 C7.08617419 66.0771203 2.67491521 66.30597455 -2.375 63.6875 C-6.01657645 60.56614876 -7.63707134 58.81144423 -8.875 54.125 C-9.02598899 49.67082465 -8.15715852 47.32038533 -6 43.4375 C-4.37550757 41.72970027 -2.70779973 40.06199243 -1 38.4375 C1.66455409 35.12481114 2.8967445 33.09145153 3.5625 28.875 C2.85439182 24.54767224 1.35755821 23.15552331 -2 20.4375 C-5.03202433 18.92148783 -7.72317543 18.92042309 -11 19.4375 C-18.24044274 21.88529581 -23.54230516 25.53352186 -27 32.4375 C-31.84322387 45.78859242 -30.65781382 57.39984043 -24.71484375 70.20703125 C-20.43727565 77.96384695 -13.94741369 85.39349448 -5.2109375 88.03515625 C7.51486729 90.35098292 20.43692801 86.72640945 31 79.4375 C38.10248624 74.16480682 42.63016409 68.08120012 47 60.4375 C48.29551321 64.34771178 47.40683528 66.38954715 45.59985352 70.07275391 C45.23690186 70.77062012 44.8739502 71.46848633 44.5 72.1875 C44.13124756 72.90470215 43.76249512 73.6219043 43.38256836 74.36083984 C35.96595863 88.37193886 24.9881666 95.07149896 10.15234375 100.05859375 C0.63584642 101.73391179 -10.10786484 101.25281059 -19 97.4375 C-19.82757813 97.0971875 -20.65515625 96.756875 -21.5078125 96.40625 C-35.1301182 90.24080277 -43.06651652 79.37064988 -48.2734375 65.62890625 C-52.68729968 52.31612838 -50.51178168 37.23005453 -44.4375 24.875 C-37.53939746 12.95235363 -26.8771564 4.82600231 -13.73828125 1.04614258 C-9.15423656 0.02723892 -4.67930048 -0.03604503 0 0 Z " fill="#1A439E" transform="translate(468,122.5625)"/>
<path d="M0 0 C3.23736508 2.62631008 4.82789382 4.10535524 5.62641239 8.25622559 C5.62729186 10.12002869 5.62729186 10.12002869 5.62818909 12.02148438 C5.63883067 13.06390667 5.63883067 13.06390667 5.64968723 14.127388 C5.66725362 16.45007565 5.6491717 18.77108673 5.63110352 21.09375 C5.63624291 22.76123821 5.64352434 24.428721 5.65278625 26.09619141 C5.67130609 30.62108461 5.65835817 35.14538885 5.63869596 39.67025757 C5.62231289 44.40582975 5.63112187 49.14136454 5.63621521 53.87695312 C5.64073655 61.82952281 5.62486383 69.78185732 5.59692383 77.734375 C5.56487172 86.92819379 5.56488752 96.12158841 5.5821386 105.31543732 C5.59800315 114.16013405 5.59127059 123.0046753 5.57420158 131.84936523 C5.56732952 135.61324198 5.56836513 139.37699414 5.57574654 143.14086914 C5.58340849 147.57332877 5.57128636 152.00530577 5.54389763 156.43768311 C5.53701174 158.06425545 5.53691804 159.69087285 5.54411316 161.31744385 C5.55280514 163.53833943 5.53685877 165.75774463 5.5146637 167.97851562 C5.51185678 169.22105103 5.50904985 170.46358643 5.50615788 171.74377441 C4.90710079 175.5976412 3.710718 177.24935796 1 180 C-2.69990228 181.84995114 -6.96167141 181.46986842 -11 181 C-14.55680172 178.89495409 -15.69468936 177.91593192 -17 174 C-17.09849156 171.77932882 -17.13503204 169.55576394 -17.14044189 167.33291626 C-17.14341302 166.65192757 -17.14638414 165.97093888 -17.1494453 165.26931417 C-17.15813211 162.98242753 -17.15964052 160.69559324 -17.16113281 158.40869141 C-17.16576096 156.77106108 -17.17078561 155.13343183 -17.17617798 153.49580383 C-17.18930333 149.04330883 -17.19574707 144.59082891 -17.20018864 140.13831758 C-17.20311882 137.35743157 -17.20722349 134.57654968 -17.21169281 131.79566574 C-17.22536737 123.09731491 -17.23503454 114.3989735 -17.2388947 105.70061266 C-17.24337713 95.65494346 -17.26093377 85.6094102 -17.2898953 75.56378233 C-17.31149835 67.80149704 -17.32159823 60.03925003 -17.32293582 52.27693498 C-17.32398473 47.63946139 -17.3299109 43.0021156 -17.34775543 38.36467361 C-17.3642126 34.00294743 -17.36640313 29.64144546 -17.35761642 25.27969933 C-17.35684481 23.67890892 -17.36120508 22.07810658 -17.37107468 20.47734642 C-17.38376045 18.29164667 -17.37793646 16.10674508 -17.36749268 13.92105103 C-17.36895924 12.69804102 -17.3704258 11.47503101 -17.3719368 10.2149601 C-16.84939198 5.69816918 -15.2520635 3.10476191 -11.875 0.125 C-7.82795371 -1.45862681 -4.11015119 -1.46388947 0 0 Z " fill="#000000" transform="translate(43,58)"/>
<path d="M0 0 C4.6052313 0.34112824 6.9205789 1.84573135 10.1875 5 C11.94598729 8.33187066 11.88762487 10.53346973 11.375 14.25 C9.35132105 17.72359452 7.26483176 19.95338941 3.375 21.25 C1.56098391 21.45796325 -0.25345867 21.66321826 -2.0703125 21.84472656 C-12.84967618 22.95348952 -22.70544065 25.33044065 -30.625 33.25 C-38.88194064 43.66826661 -42.69080882 55.81951636 -42.79858398 69.01806641 C-42.805271 69.66600662 -42.81195801 70.31394684 -42.81884766 70.98152161 C-42.83281392 72.37774468 -42.84473414 73.77398945 -42.85479546 75.17024612 C-42.87131693 77.3814317 -42.89455456 79.59245489 -42.91969299 81.80355835 C-42.99018982 88.08640363 -43.05069502 94.36931111 -43.10180664 100.65234375 C-43.13361023 104.50432304 -43.17487582 108.35610687 -43.22200203 112.2079277 C-43.2379978 113.67269763 -43.25033057 115.13751237 -43.25890923 116.60234451 C-43.27107496 118.64867282 -43.29522532 120.69454105 -43.32202148 122.74072266 C-43.33232895 123.90399078 -43.34263641 125.06725891 -43.35325623 126.26577759 C-43.62018211 129.19709117 -43.98278328 130.83540554 -45.625 133.25 C-48.95000313 135.46666876 -50.66223828 136.02137913 -54.625 136.25 C-58.63191971 134.89172213 -62.00277208 133.64093821 -64.625 130.25 C-65.00531673 127.97109318 -65.00531673 127.97109318 -65.01268005 125.24659729 C-65.02258469 124.21331299 -65.03248932 123.18002869 -65.04269409 122.11543274 C-65.03819244 120.98236191 -65.0336908 119.84929108 -65.02905273 118.68188477 C-65.03591599 117.48818268 -65.04277924 116.29448059 -65.04985046 115.06460571 C-65.06503139 111.78971397 -65.06660805 108.51517827 -65.06090808 105.24026608 C-65.05782023 102.50661184 -65.0639042 99.77300927 -65.06994683 97.03936237 C-65.08400031 90.59024418 -65.0824242 84.14125843 -65.07104492 77.69213867 C-65.05956436 71.03858349 -65.07363604 64.38543141 -65.1004414 57.73192936 C-65.12259298 52.01972284 -65.129237 46.30764289 -65.12336498 40.59539646 C-65.11999265 37.18360713 -65.12242828 33.77207618 -65.13961601 30.36032295 C-65.1544491 26.55574454 -65.14390406 22.7520597 -65.12670898 18.94750977 C-65.13637695 17.81646317 -65.14604492 16.68541656 -65.15600586 15.52009583 C-65.14617172 14.4839917 -65.13633759 13.44788757 -65.12620544 12.38038635 C-65.12599616 11.48092568 -65.12578688 10.58146502 -65.12557125 9.65474796 C-64.46524703 6.48254557 -63.07997946 5.29244152 -60.625 3.25 C-57.04480989 1.45990495 -53.06303267 1.78361103 -49.3125 3 C-47.20632939 4.56012638 -46.62646334 5.83479982 -45.625 8.25 C-45.30615234 10.54003906 -45.30615234 10.54003906 -45.2109375 13.015625 C-45.17226563 13.90507813 -45.13359375 14.79453125 -45.09375 15.7109375 C-45.0628125 16.63132812 -45.031875 17.55171875 -45 18.5 C-44.96132813 19.43585938 -44.92265625 20.37171875 -44.8828125 21.3359375 C-44.78875156 23.64043054 -44.70310601 25.94492013 -44.625 28.25 C-44.23828125 27.65832031 -43.8515625 27.06664062 -43.453125 26.45703125 C-42.93234375 25.66683594 -42.4115625 24.87664062 -41.875 24.0625 C-41.36453125 23.28519531 -40.8540625 22.50789063 -40.328125 21.70703125 C-32.17089743 9.93892084 -20.70007325 3.36251536 -6.75 0.4375 C-4.49932645 0.30245959 -2.24937818 0.15512953 0 0 Z " fill="#000000" transform="translate(788.625,103.75)"/>
<path d="M0 0 C4.37771134 4.54027887 5.74066449 9.22938769 6.09765625 15.46484375 C5.88007213 21.83925252 3.68146691 25.84206396 -0.52734375 30.52734375 C-5.96430596 35.58498302 -10.39848195 35.83419031 -17.58984375 35.73046875 C-23.55928361 35.31768833 -26.4549916 32.78814934 -30.33984375 28.52734375 C-34.45912754 23.72605933 -34.94536246 19.71275641 -34.86328125 13.515625 C-34.21270576 7.7285291 -32.0050052 2.74044998 -27.625 -1.171875 C-18.96623268 -6.97208574 -8.2093609 -6.69557804 0 0 Z " fill="#1A439F" transform="translate(538.52734375,50.47265625)"/>
<path d="M0 0 C2.97 0 5.94 0 9 0 C9 7.59 9 15.18 9 23 C17.58 23 26.16 23 35 23 C35 15.41 35 7.82 35 0 C37.64 0 40.28 0 43 0 C43 17.16 43 34.32 43 52 C40.36 52 37.72 52 35 52 C35 44.41 35 36.82 35 29 C26.42 29 17.84 29 9 29 C9 36.59 9 44.18 9 52 C6.03 52 3.06 52 0 52 C0 34.84 0 17.68 0 0 Z " fill="#1A439F" transform="translate(881,282)"/>
<path d="M0 0 C1.39120471 0.00015906 2.78241534 0.00585033 4.17358398 0.01586914 C4.90463852 0.01728409 5.63569305 0.01869904 6.38890076 0.02015686 C8.73253406 0.02577131 11.07607313 0.03832617 13.41967773 0.05102539 C15.00496282 0.05603853 16.59024939 0.06060176 18.17553711 0.06469727 C22.06945383 0.07574542 25.96329979 0.09301967 29.85717773 0.11352539 C29.85717773 2.09352539 29.85717773 4.07352539 29.85717773 6.11352539 C21.60717773 6.11352539 13.35717773 6.11352539 4.85717773 6.11352539 C4.85717773 11.72352539 4.85717773 17.33352539 4.85717773 23.11352539 C11.45717773 23.11352539 18.05717773 23.11352539 24.85717773 23.11352539 C24.85717773 25.09352539 24.85717773 27.07352539 24.85717773 29.11352539 C18.25717773 29.11352539 11.65717773 29.11352539 4.85717773 29.11352539 C4.85717773 34.39352539 4.85717773 39.67352539 4.85717773 45.11352539 C7.43852539 45.09612305 7.43852539 45.09612305 10.07202148 45.07836914 C12.31290582 45.06899306 14.55379133 45.05989266 16.79467773 45.05102539 C17.93098633 45.04264648 19.06729492 45.03426758 20.23803711 45.02563477 C21.31762695 45.02241211 22.3972168 45.01918945 23.50952148 45.01586914 C25.00986938 45.00801392 25.00986938 45.00801392 26.54052734 45 C28.85717773 45.11352539 28.85717773 45.11352539 29.85717773 46.11352539 C29.85717773 48.09352539 29.85717773 50.07352539 29.85717773 52.11352539 C18.63717773 52.11352539 7.41717773 52.11352539 -4.14282227 52.11352539 C-4.16572504 44.86861325 -4.18565403 37.6238257 -4.19775391 30.37890625 C-4.20279583 27.91210506 -4.20962917 25.44530687 -4.21826172 22.97851562 C-4.23033351 19.4414801 -4.23605182 15.90448394 -4.24047852 12.36743164 C-4.2456398 11.25703018 -4.25080109 10.14662872 -4.25611877 9.00257874 C-4.25619431 7.98159592 -4.25626984 6.9606131 -4.25634766 5.90869141 C-4.25856827 5.0049025 -4.26078888 4.10111359 -4.26307678 3.16993713 C-4.06486939 -0.21950743 -3.47710418 0.12560036 0 0 Z " fill="#1A439F" transform="translate(756.142822265625,281.886474609375)"/>
<path d="M0 0 C1.97411149 1.54256153 3.3791286 3.06541155 5 5 C4.01 6.32 3.02 7.64 2 9 C-0.79901157 8.37114718 -2.95363175 7.57250991 -5.625 6.375 C-10.54645563 4.5110905 -14.93015515 4.76013845 -20 6 C-24.95455233 8.43223478 -27.01457977 10.87970571 -29 16 C-30.98378423 23.03341683 -30.18954507 29.1281843 -27.328125 35.7578125 C-25.11572453 39.49286506 -23.04348497 40.4237262 -19 42 C-13.57241351 43.38156747 -9.17489847 42.95321548 -4 41 C-1.58197908 39.52597456 -1.58197908 39.52597456 0 38 C1.9375 38.75 1.9375 38.75 4 40 C4.75 42.125 4.75 42.125 5 44 C-1.3407804 49.74633224 -7.71375291 51.63352656 -16.1953125 51.33984375 C-22.97908956 50.51785405 -28.23329107 48.2599332 -32.9375 43.25 C-39.24610378 35.12618475 -40.0610705 27.19094088 -39 17 C-38.07503546 13.6891013 -36.7958903 10.92223264 -35 8 C-34.443125 7.0925 -33.88625 6.185 -33.3125 5.25 C-24.17342215 -3.64207574 -11.42891274 -5.56236057 0 0 Z " fill="#1A439F" transform="translate(849,284)"/>
<path d="M0 0 C13.86 0 27.72 0 42 0 C42 2.31 42 4.62 42 7 C36.39 7 30.78 7 25 7 C25 21.85 25 36.7 25 52 C22.36 52 19.72 52 17 52 C17 37.15 17 22.3 17 7 C11.72 7 6.44 7 1 7 C0.67 6.67 0.34 6.34 0 6 C0 4.02 0 2.04 0 0 Z " fill="#1A439F" transform="translate(684,282)"/>
</svg>
