<?xml version="1.0" encoding="UTF-8"?>
<svg version="1.1" xmlns="http://www.w3.org/2000/svg" width="168" height="28">
<path d="M0 0 C4.06959846 0.88346941 7.67794657 2.56043973 11.46484375 4.2578125 C16.80880285 5.82229976 21.15768584 3.12063188 25.9140625 0.83984375 C28 -0 28 -0 31 0 C31 2.3125 31 2.3125 30 5 C27.38948072 6.41288147 24.86714656 7.135305 22 8 C26.455 9.98 26.455 9.98 31 12 C30 15 30 15 28.15234375 15.94921875 C25.07617188 16.97460938 25.07617188 16.97460938 22 18 C26.455 19.98 26.455 19.98 31 22 C31 23.32 31 24.64 31 26 C27.46410911 25.56879379 24.85931768 24.93226407 21.625 23.375 C15.97296762 21.23112565 11.62458037 22.17018464 6.1875 24.5625 C5.135625 25.036875 4.08375 25.51125 3 26 C2.01 26 1.02 26 0 26 C0 24.68 0 23.36 0 22 C2.64 20.68 5.28 19.36 8 18 C5.36 16.68 2.72 15.36 0 14 C0 13.34 0 12.68 0 12 C2.64 10.68 5.28 9.36 8 8 C5.36 6.68 2.72 5.36 0 4 C0 2.68 0 1.36 0 0 Z M10 12 C9.67 12.66 9.34 13.32 9 14 C9.66 14 10.32 14 11 14 C10.67 13.34 10.34 12.68 10 12 Z " fill="#373335" transform="translate(1,1)"/>
<path d="M0 0 C2.31 0 4.62 0 7 0 C7.33 6.6 7.66 13.2 8 20 C9.65 20.33 11.3 20.66 13 21 C13.33 14.07 13.66 7.14 14 0 C15.98 0 17.96 0 20 0 C20.11660824 3.39554235 20.18738372 6.79056679 20.25 10.1875 C20.30027344 11.62706055 20.30027344 11.62706055 20.3515625 13.09570312 C20.41169378 17.44018777 20.39733466 20.25360498 18.328125 24.140625 C14.74349661 27.00351613 11.9948702 26.62827429 7.5703125 26.43359375 C5 26 5 26 2.375 24.125 C0.30850275 20.93132243 -0.12156494 19.20726073 -0.09765625 15.4296875 C-0.09443359 14.53378906 -0.09121094 13.63789063 -0.08789062 12.71484375 C-0.07951172 11.77769531 -0.07113281 10.84054687 -0.0625 9.875 C-0.05798828 8.93011719 -0.05347656 7.98523438 -0.04882812 7.01171875 C-0.03702357 4.67441613 -0.02055759 2.33723939 0 0 Z " fill="#ED3237" transform="translate(125,1)"/>
<path d="M0 0 C13.6034088 -0.70974307 13.6034088 -0.70974307 17.14453125 1.08984375 C19.68943586 3.85476893 20 6.00504154 20 9.6875 C19.00054639 12.99819009 18.60849872 13.93910936 16 16 C13.73828125 16.73046875 13.73828125 16.73046875 11.3125 17.1875 C10.50425781 17.34605469 9.69601563 17.50460938 8.86328125 17.66796875 C8.24839844 17.77753906 7.63351563 17.88710938 7 18 C7 20.64 7 23.28 7 26 C4.69 26 2.38 26 0 26 C0 17.42 0 8.84 0 0 Z M7 6 C7 7.65 7 9.3 7 11 C8.98 11 10.96 11 13 11 C13 9.35 13 7.7 13 6 C11.02 6 9.04 6 7 6 Z " fill="#ED3237" transform="translate(58,1)"/>
<path d="M0 0 C2.3925 -0.0825 4.785 -0.165 7.25 -0.25 C7.99668945 -0.28641602 8.74337891 -0.32283203 9.51269531 -0.36035156 C12.91352608 -0.41706257 14.68609688 -0.23707015 17.42578125 1.83203125 C19.47181098 4.64976449 19.92902182 6.52206928 20 10 C18.39588152 13.52906067 17.25840638 14.82772908 14 17 C11.67612053 17.39387788 9.34206251 17.73486085 7 18 C7 20.64 7 23.28 7 26 C4.69 26 2.38 26 0 26 C0 17.42 0 8.84 0 0 Z M6 6 C6 7.65 6 9.3 6 11 C8.31 11 10.62 11 13 11 C12.67 9.35 12.34 7.7 12 6 C10.02 6 8.04 6 6 6 Z " fill="#ED3237" transform="translate(86,1)"/>
<path d="M0 0 C2.55859375 0.37109375 2.55859375 0.37109375 5.55859375 2.37109375 C5.55859375 3.36109375 5.55859375 4.35109375 5.55859375 5.37109375 C1.23124984 7.60033152 -1.72540807 7.29579928 -6.44140625 6.37109375 C-6.11140625 7.36109375 -5.78140625 8.35109375 -5.44140625 9.37109375 C-3.40863152 10.32226733 -3.40863152 10.32226733 -1.00390625 10.93359375 C3.36128433 12.17378433 3.36128433 12.17378433 5.55859375 14.37109375 C5.859375 16.4296875 5.859375 16.4296875 5.87109375 18.80859375 C5.88785156 19.59105469 5.90460938 20.37351562 5.921875 21.1796875 C5.55859375 23.37109375 5.55859375 23.37109375 4.4453125 25.13671875 C1.65126277 26.96470987 -0.63794912 26.73195517 -3.94140625 26.68359375 C-5.08609375 26.67972656 -6.23078125 26.67585938 -7.41015625 26.671875 C-10.44140625 26.37109375 -10.44140625 26.37109375 -13.44140625 24.37109375 C-12.78140625 23.05109375 -12.12140625 21.73109375 -11.44140625 20.37109375 C-7.65433893 20.37109375 -4.17627504 20.79649855 -0.44140625 21.37109375 C-0.77140625 20.05109375 -1.10140625 18.73109375 -1.44140625 17.37109375 C-2.69953125 17.10296875 -3.95765625 16.83484375 -5.25390625 16.55859375 C-7.59249846 15.95428497 -9.35757973 15.42086575 -11.44140625 14.18359375 C-13.11968193 11.14171908 -12.85101192 8.76496928 -12.44140625 5.37109375 C-9.7849653 -0.57427409 -5.83996012 -0.13470736 0 0 Z " fill="#ED3237" transform="translate(159.44140625,0.62890625)"/>
<path d="M0 0 C2.3125 0.4921875 2.3125 0.4921875 4.875 2.7421875 C6.08959802 5.06576631 6.93042122 6.91315572 7.3125 9.4921875 C0.74612832 9.86386892 0.74612832 9.86386892 -1.4375 7.9921875 C-2.05625 7.2496875 -2.05625 7.2496875 -2.6875 6.4921875 C-3.6775 6.4921875 -4.6675 6.4921875 -5.6875 6.4921875 C-5.6875 10.7821875 -5.6875 15.0721875 -5.6875 19.4921875 C-4.0375 19.8221875 -2.3875 20.1521875 -0.6875 20.4921875 C-0.3575 19.8321875 -0.0275 19.1721875 0.3125 18.4921875 C2.6225 18.4921875 4.9325 18.4921875 7.3125 18.4921875 C5.6875 24.2421875 5.6875 24.2421875 2.3125 26.4921875 C-0.24609375 26.86328125 -0.24609375 26.86328125 -3.125 26.9296875 C-4.07246094 26.96964844 -5.01992188 27.00960938 -5.99609375 27.05078125 C-8.6875 26.4921875 -8.6875 26.4921875 -11 24.46484375 C-13.10304355 20.76017675 -13.31509161 17.64273466 -13.25 13.4921875 C-13.27384766 12.79351562 -13.29769531 12.09484375 -13.32226562 11.375 C-13.3113371 7.51358825 -12.79873553 5.6406321 -10.46875 2.53125 C-6.72744056 -0.2116763 -4.49697698 -0.22752562 0 0 Z " fill="#ED3237" transform="translate(49.6875,0.5078125)"/>
<path d="M0 0 C1.98 0 3.96 0 6 0 C6 6.93 6 13.86 6 21 C9.96 21 13.92 21 18 21 C18 22.65 18 24.3 18 26 C12.06 26 6.12 26 0 26 C0 17.42 0 8.84 0 0 Z " fill="#ED3237" transform="translate(107,1)"/>
<path d="M0 0 C0.33 0.66 0.66 1.32 1 2 C-1.25 3.125 -1.25 3.125 -4 4 C-6.3125 3.125 -6.3125 3.125 -8 2 C-8 1.34 -8 0.68 -8 0 C-4.69693408 -1.10102197 -3.28414305 -0.95067299 0 0 Z " fill="#EB3236" transform="translate(20,13)"/>
</svg>
