<?xml version="1.0" encoding="UTF-8"?>
<svg version="1.1" xmlns="http://www.w3.org/2000/svg" width="793" height="213">
<path d="M0 0 C8.58 0 17.16 0 26 0 C30.71932723 6.74189604 35.09336758 13.34617543 39.1875 20.4375 C45.9378085 31.99639557 53.01575177 43.32856848 60.3046875 54.5546875 C60.94664062 55.54726562 61.58859375 56.53984375 62.25 57.5625 C63.06210937 58.80193359 63.06210937 58.80193359 63.890625 60.06640625 C65 62 65 62 65 64 C65.66 64 66.32 64 67 64 C67.3880481 62.94425781 67.3880481 62.94425781 67.78393555 61.8671875 C69.10402302 58.75473873 70.69447816 56.0100537 72.45703125 53.125 C72.79648773 52.56718842 73.13594421 52.00937683 73.48568726 51.43466187 C74.59090734 49.62080897 75.70159262 47.8103742 76.8125 46 C77.58075301 44.74186282 78.34873563 43.48356049 79.11645508 42.22509766 C84.27963853 33.77026534 89.47669602 25.33605452 94.7121582 16.92578125 C98.20206244 11.31665125 101.59984013 5.66693311 105 0 C113.58 0 122.16 0 131 0 C131 29.7 131 59.4 131 90 C122.75 90 114.5 90 106 90 C105.67 74.16 105.34 58.32 105 42 C102.793125 45.691875 100.58625 49.38375 98.3125 53.1875 C93.13713099 61.82529997 87.92192535 70.43602315 82.625 79 C82.07239502 79.89485107 81.51979004 80.78970215 80.95043945 81.71166992 C80.44343506 82.52869385 79.93643066 83.34571777 79.4140625 84.1875 C78.9701416 84.90292969 78.5262207 85.61835938 78.06884766 86.35546875 C76.24310231 89.16456437 74.95904987 89.38187001 71.6875 90.08203125 C65.50901629 91.05819086 59.84734303 91.54707466 54 89 C46.24396942 81.44764198 41.83255638 70.47725829 37 61 C33.37 55.06 29.74 49.12 26 43 C25.67 58.51 25.34 74.02 25 90 C16.75 90 8.5 90 0 90 C0 60.3 0 30.6 0 0 Z " fill="#19459D" transform="translate(441,60)"/>
<path d="M0 0 C22.59908579 -0.16043524 22.59908579 -0.16043524 32.26367188 -0.1953125 C38.84738122 -0.21918453 45.43086713 -0.24736563 52.0144043 -0.30175781 C57.32474777 -0.34535439 62.6348515 -0.36916641 67.94536018 -0.37950897 C69.96708002 -0.38687556 71.98878736 -0.40126069 74.01040459 -0.42292023 C76.85154008 -0.45213775 79.69169641 -0.45594835 82.53295898 -0.45410156 C83.77482468 -0.47567322 83.77482468 -0.47567322 85.04177856 -0.49768066 C93.26109478 -0.44021507 100.34864668 2.61260349 106.4296875 8.15625 C111.59342163 14.21914182 114.39016722 21.80266917 114.19921875 29.734375 C113.34952013 39.39761417 109.16149459 45.57934968 102 52 C95.87377265 56.63538674 88.43848698 57.13822407 81 58 C85.40043842 62.50576807 89.87472542 66.83425722 94.65234375 70.9375 C98.31631005 74.15642547 101.87237801 77.49199433 105.43237305 80.82519531 C107.68219095 82.91953661 109.90051799 84.92782678 112.390625 86.734375 C112.92171875 87.15203125 113.4528125 87.5696875 114 88 C114 88.66 114 89.32 114 90 C84.32755578 94.31867803 84.32755578 94.31867803 73.13542366 86.63486671 C65.58292899 80.77649845 59.22261417 73.59136773 52.95507812 66.41662598 C50.18015836 63.28432393 47.29480063 60.25706218 44.41992188 57.21679688 C28 39.73910777 28 39.73910777 28 38 C29.02357353 37.9845388 29.02357353 37.9845388 30.06782532 37.96876526 C37.15656232 37.86076179 44.24517063 37.74615869 51.33374023 37.62768555 C53.98084832 37.58431696 56.62798472 37.54264332 59.27514648 37.50268555 C63.075445 37.44502977 66.87560068 37.38132156 70.67578125 37.31640625 C71.86335526 37.29969376 73.05092926 37.28298126 74.27449036 37.26576233 C75.9258625 37.2358445 75.9258625 37.2358445 77.6105957 37.20532227 C79.06620659 37.18200584 79.06620659 37.18200584 80.55122375 37.15821838 C83.13795675 37.09534871 83.13795675 37.09534871 86 36 C87.19754817 32.40735548 87.33094958 29.77282526 87 26 C84.78136971 23.09282927 83.48055071 22.16018357 80 21 C78.23659857 20.88427033 76.46935231 20.82350925 74.70239258 20.79467773 C73.60640747 20.77449585 72.51042236 20.75431396 71.38122559 20.73352051 C70.23061646 20.71704468 69.08000732 20.70056885 67.89453125 20.68359375 C66.83600952 20.66494263 65.77748779 20.6462915 64.68688965 20.6270752 C60.72884551 20.55872326 56.77066258 20.4986092 52.8125 20.4375 C43.964375 20.293125 35.11625 20.14875 26 20 C26 43.1 26 66.2 26 90 C17.42 90 8.84 90 0 90 C0 60.3 0 30.6 0 0 Z " fill="#19459D" transform="translate(176,60)"/>
<path d="M0 0 C14.14875 -0.0825 28.2975 -0.165 42.875 -0.25 C47.32597168 -0.28641602 51.77694336 -0.32283203 56.36279297 -0.36035156 C61.84008789 -0.37841797 61.84008789 -0.37841797 64.41238403 -0.3817749 C66.19115208 -0.38787702 67.96990461 -0.40186126 69.74856567 -0.42230225 C82.09124379 -0.55693438 92.92173826 -0.63828399 102.46875 8.30078125 C108.97601755 15.52185621 111.54339803 23.42052419 111.3046875 33.1015625 C110.31857502 42.48227356 106.16352761 49.91222397 99 56 C92.46012115 60.10460865 86.74481411 62.129716 79.03808594 62.11352539 C77.83714294 62.11344986 76.63619995 62.11337433 75.39886475 62.11329651 C73.46119232 62.10555458 73.46119232 62.10555458 71.484375 62.09765625 C70.14487765 62.09579017 68.80537962 62.09436716 67.46588135 62.09336853 C63.94777528 62.08955835 60.42971079 62.07974091 56.91162109 62.06866455 C53.31869072 62.05841817 49.7257534 62.05380914 46.1328125 62.04882812 C39.08850501 62.03864849 32.04431152 62.01907305 25 62 C25 71.24 25 80.48 25 90 C16.75 90 8.5 90 0 90 C0 60.3 0 30.6 0 0 Z M25 20 C25 26.93 25 33.86 25 41 C32.59883832 41.09888873 40.19730192 41.17147992 47.79663086 41.21972656 C50.38165817 41.23983972 52.96664 41.26713386 55.55151367 41.30175781 C59.26752955 41.35028654 62.98294378 41.37297235 66.69921875 41.390625 C67.85459641 41.41127014 69.00997406 41.43191528 70.20036316 41.45318604 C76.50225979 41.51604521 76.50225979 41.51604521 82.18286133 39.08886719 C85.1610099 35.66537677 86.02201574 34.21086588 85.9375 29.5625 C84.81320243 25.29016924 83.47242251 23.68323558 80 21 C76.57944426 20.08905286 73.37129567 19.87754102 69.8425293 19.88647461 C68.84186935 19.88655014 67.84120941 19.88662567 66.81022644 19.88670349 C65.20840263 19.89444542 65.20840263 19.89444542 63.57421875 19.90234375 C61.92012749 19.90446617 61.92012749 19.90446617 60.23262024 19.90663147 C56.71755233 19.91221996 53.20254859 19.92477041 49.6875 19.9375 C47.30143321 19.94251648 44.91536543 19.94707913 42.52929688 19.95117188 C36.68617327 19.96218563 30.84309751 19.97944242 25 20 Z " fill="#19459D" transform="translate(50,60)"/>
<path d="M0 0 C5.41948427 0.12142217 9.90655987 0.66117001 14.20849609 4.18408203 C19.43552301 10.69961643 22.89015881 18.25251207 26.42871094 25.77148438 C29.52215695 32.23493838 33.32230102 38.29019153 37.04846191 44.40209961 C39.08288164 47.75458 41.07300046 51.1330844 43.06689453 54.50976562 C46.81134176 60.83262564 50.57264012 67.14522964 54.35205078 73.44726562 C54.80942627 74.21103516 55.26680176 74.97480469 55.73803711 75.76171875 C58.27670499 79.9891589 60.87531079 84.16641754 63.56347656 88.30078125 C64.47705078 89.94726562 64.47705078 89.94726562 64.47705078 91.94726562 C60.33335869 92.24584113 56.1954556 92.46238749 52.04418945 92.60644531 C50.63585407 92.66650501 49.22825857 92.74820294 47.82250977 92.85253906 C45.78754913 92.9996968 43.76248221 93.06635419 41.72314453 93.11914062 C40.50296631 93.18198242 39.28278809 93.24482422 38.02563477 93.30957031 C33.53823166 91.58685209 33.41643436 90.2066845 31.39916992 85.97363281 C28.95637714 81.29900726 28.95637714 81.29900726 24.52098083 78.79681396 C20.79462357 78.35835834 17.22874685 78.28331103 13.47705078 78.35351562 C12.11374426 78.34541781 10.75045471 78.33375963 9.38720703 78.31872559 C6.53786318 78.30109135 3.69305164 78.32651156 0.84423828 78.3828125 C-2.79394948 78.45124236 -6.42152769 78.41183654 -10.05932617 78.33994293 C-12.87238367 78.29639298 -15.68295785 78.31045288 -18.49609375 78.34147644 C-20.4829811 78.35327822 -22.46996835 78.31708152 -24.45654297 78.27990723 C-28.18620859 78.39571926 -31.04073705 78.59244008 -34.52294922 79.94726562 C-36.87345616 82.90523437 -38.39838769 85.84696853 -40.02078247 89.25195312 C-41.52294922 91.94726562 -41.52294922 91.94726562 -44.97973633 93.30957031 C-46.15802002 93.24672852 -47.33630371 93.18388672 -48.55029297 93.11914062 C-49.83613281 93.08046875 -51.12197266 93.04179687 -52.44677734 93.00195312 C-53.7847678 92.9017144 -55.12265847 92.80013528 -56.46044922 92.69726562 C-57.82544851 92.63699503 -59.19070388 92.58225528 -60.55615234 92.53320312 C-63.88497499 92.39205163 -67.20066141 92.19526873 -70.52294922 91.94726562 C-69.08889077 88.08586341 -67.29147997 84.64940777 -65.20654297 81.09960938 C-64.87847656 80.5394664 -64.55041016 79.97932343 -64.21240234 79.40220642 C-63.13216731 77.56082646 -62.04653794 75.72269814 -60.96044922 73.88476562 C-60.19549166 72.58483641 -59.43060018 71.28486831 -58.66577148 69.98486328 C-52.82003629 60.06692834 -46.86413079 50.21769902 -40.86645508 40.39111328 C-34.96572118 30.71717647 -29.17993376 20.97751018 -23.43481445 11.21044922 C-22.80389893 10.14004395 -22.1729834 9.06963867 -21.52294922 7.96679688 C-20.96607422 7.01909424 -20.40919922 6.0713916 -19.83544922 5.0949707 C-16.16251694 -0.91522001 -6.43940512 0.12100843 0 0 Z M-3.52294922 26.94726562 C-8.59015375 33.68060656 -12.67853058 41.17119089 -16.89794922 48.44726562 C-17.53861328 49.54296875 -18.17927734 50.63867188 -18.83935547 51.76757812 C-21.90237273 56.11637478 -21.90237273 56.11637478 -23.52294922 60.94726562 C-10.32294922 60.94726562 2.87705078 60.94726562 16.47705078 60.94726562 C14.79324459 56.73775014 12.88362709 52.99585049 10.59814453 49.11523438 C10.22601334 48.47862381 9.85388214 47.84201324 9.47047424 47.18611145 C8.68800074 45.84971474 7.90378476 44.5143369 7.11791992 43.17993164 C5.90996566 41.12697306 4.70980471 39.0695963 3.51025391 37.01171875 C2.74834605 35.71261959 1.98599217 34.4137819 1.22314453 33.11523438 C0.86272568 32.49658005 0.50230682 31.87792572 0.13096619 31.24052429 C-0.72546217 29.79237945 -1.62017656 28.36698198 -2.52294922 26.94726562 C-2.85294922 26.94726562 -3.18294922 26.94726562 -3.52294922 26.94726562 Z " fill="#19459D" transform="translate(652.52294921875,58.052734375)"/>
<path d="M0 0 C21.96586441 -1.65829866 21.96586441 -1.65829866 28.30957031 1.66235352 C31.69688988 4.91956869 33.19043369 9.35136275 34.93017578 13.6315918 C37.48308173 19.2790702 40.86420251 24.49557666 44.08306885 29.78259277 C46.18018933 33.24469139 48.23095119 36.73410973 50.2890625 40.21948242 C55.64522504 49.25994929 61.09706099 58.24134113 66.57446289 67.20874023 C69.82951656 72.54425592 73.06558119 77.8906559 76.25390625 83.26635742 C76.83366211 84.24185547 77.41341797 85.21735352 78.01074219 86.22241211 C79.26953125 88.59448242 79.26953125 88.59448242 79.26953125 90.59448242 C75.25014062 90.81812171 71.23318353 90.98076728 67.20898438 91.08886719 C65.84278269 91.13394409 64.47701095 91.19523413 63.11230469 91.2734375 C51.8073629 91.90469885 51.8073629 91.90469885 48.03613281 88.69165039 C45.58990726 85.12466459 44.27111103 81.77107766 43.26953125 77.59448242 C35.17564576 77.44678167 27.08478055 77.36434535 18.98967648 77.36388779 C15.22995926 77.36165252 11.47312823 77.33743405 7.71411133 77.26196289 C4.08196487 77.18986448 0.45385276 77.17683766 -3.17886162 77.2037735 C-4.56040702 77.20382906 -5.9421239 77.1830331 -7.32301521 77.14052582 C-11.7108995 77.01370216 -15.58556873 77.08720072 -19.73046875 78.59448242 C-22.11930439 81.54667448 -23.62725269 84.46389862 -25.24464417 87.89202881 C-26.73046875 90.59448242 -26.73046875 90.59448242 -30.18725586 91.95678711 C-31.36553955 91.89394531 -32.54382324 91.83110352 -33.7578125 91.76635742 C-35.04365234 91.72768555 -36.32949219 91.68901367 -37.65429688 91.64916992 C-38.99228733 91.5489312 -40.330178 91.44735208 -41.66796875 91.34448242 C-43.03296805 91.28421183 -44.39822341 91.22947208 -45.76367188 91.18041992 C-49.09249452 91.03926843 -52.40818094 90.84248553 -55.73046875 90.59448242 C-54.23028384 86.49110583 -52.21731238 82.82355337 -49.9765625 79.09057617 C-49.60387741 78.46348251 -49.23119232 77.83638885 -48.84721375 77.19029236 C-47.62443621 75.13532993 -46.39633379 73.08360897 -45.16796875 71.03198242 C-44.3101944 69.59345621 -43.45261225 68.15481537 -42.59521484 66.71606445 C-36.37258477 56.28664722 -30.07980827 45.90032578 -23.75927734 35.5300293 C-18.65485652 27.14670599 -13.63074757 18.71890177 -8.66259766 10.25415039 C-8.17065918 9.4164209 -7.6787207 8.57869141 -7.171875 7.71557617 C-6.74592041 6.98781982 -6.31996582 6.26006348 -5.88110352 5.51025391 C-2.95844529 0.64411787 -2.95844529 0.64411787 0 0 Z M11.26953125 25.59448242 C6.37909574 33.47671378 1.55622628 41.39885274 -3.23046875 49.34448242 C-3.7709082 50.238125 -4.31134766 51.13176758 -4.86816406 52.05249023 C-5.61984863 53.30304199 -5.61984863 53.30304199 -6.38671875 54.57885742 C-6.83853516 55.32876953 -7.29035156 56.07868164 -7.75585938 56.85131836 C-8.81180336 58.40710248 -8.81180336 58.40710248 -8.73046875 59.59448242 C4.46953125 59.59448242 17.66953125 59.59448242 31.26953125 59.59448242 C28.957925 53.8154668 25.98727149 48.65164982 22.87475586 43.27368164 C21.83303961 41.47122716 20.80005684 39.66395925 19.76757812 37.85620117 C18.78047852 36.1449707 18.78047852 36.1449707 17.7734375 34.39916992 C17.17345947 33.35744629 16.57348145 32.31572266 15.95532227 31.24243164 C14.5347084 29.01100832 13.23404305 27.33846869 11.26953125 25.59448242 Z " fill="#19459D" transform="translate(351.73046875,59.405517578125)"/>
<path d="M0 0 C10.5553754 9.00874185 19.23120065 21.85255183 20.38793945 36.07006836 C20.79834854 51.82094768 19.61503517 64.64818796 10.2109375 77.89453125 C9.5509375 78.55453125 8.8909375 79.21453125 8.2109375 79.89453125 C2.51989479 79.60997911 -2.61142937 77.09451371 -7.7890625 74.89453125 C-7.41394531 74.44464844 -7.03882813 73.99476562 -6.65234375 73.53125 C2.10052412 62.52953446 5.07347281 51.80901594 4.2109375 37.89453125 C2.68152424 28.25501831 -2.49887296 19.27581959 -9.9765625 13.01953125 C-19.8111948 6.07350912 -30.73192187 2.62053125 -42.7265625 4.45703125 C-51.08459426 6.4165698 -58.86984045 10.89731532 -65.7890625 15.89453125 C-66.29415458 13.64566887 -66.79295429 11.39539256 -67.2890625 9.14453125 C-67.5675 7.8915625 -67.8459375 6.63859375 -68.1328125 5.34765625 C-68.7890625 1.89453125 -68.7890625 1.89453125 -68.7890625 -2.10546875 C-45.90741408 -14.62691054 -21.82858326 -16.47844031 0 0 Z " fill="#F6911E" transform="translate(756.7890625,29.10546875)"/>
<path d="M0 0 C3.68624894 2.50360622 6.59882283 5.72518054 9.08203125 9.4140625 C9.08203125 10.0740625 9.08203125 10.7340625 9.08203125 11.4140625 C8.15970703 11.56101562 8.15970703 11.56101562 7.21875 11.7109375 C2.25835523 12.57498967 2.25835523 12.57498967 -1.98046875 15.1015625 C-3.32825654 18.42610571 -3.3617701 20.86365168 -2.91796875 24.4140625 C-0.67563829 27.8224048 0.68823699 28.33258783 4.70703125 29.1640625 C6.49573429 29.29655902 8.28842765 29.4140625 10.08203125 29.4140625 C9.262777 35.30245244 6.41778615 38.5102531 2.08203125 42.4140625 C-4.14423911 46.61562464 -10.56453462 47.30604711 -17.91796875 46.4140625 C-24.43656675 44.95299743 -29.52569641 41.79101686 -33.3984375 36.32421875 C-37.32438573 29.53903652 -38.07308437 23.13061356 -36.91796875 15.4140625 C-34.67786038 7.94360936 -30.64532221 3.24677782 -23.91796875 -0.5859375 C-16.44546875 -4.23915972 -7.34704643 -3.68014217 0 0 Z " fill="#17A24A" transform="translate(730.91796875,54.5859375)"/>
<path d="M0 0 C2.31 0 4.62 0 7 0 C8.32 2.64 9.64 5.28 11 8 C11.99 5.36 12.98 2.72 14 0 C16.31 0 18.62 0 21 0 C21.85373239 7.02804699 22.12109311 13.92278069 22 21 C20.35 21 18.7 21 17 21 C16.34 18.69 15.68 16.38 15 14 C14.01 16.31 13.02 18.62 12 21 C10.68 21 9.36 21 8 21 C7.34 19.02 6.68 17.04 6 15 C5.34 16.98 4.68 18.96 4 21 C2.35 21 0.7 21 -1 21 C-0.67 14.07 -0.34 7.14 0 0 Z " fill="#17A24A" transform="translate(521,178)"/>
<path d="M0 0 C2.31 0 4.62 0 7 0 C7.99 2.64 8.98 5.28 10 8 C10.433125 7.13375 10.433125 7.13375 10.875 6.25 C11.91666667 4.16666667 12.95833333 2.08333333 14 0 C16.31 0 18.62 0 21 0 C21.33 6.93 21.66 13.86 22 21 C20.02 21 18.04 21 16 21 C15.67 18.36 15.34 15.72 15 13 C14.01 15.64 13.02 18.28 12 21 C10.35 20.67 8.7 20.34 7 20 C6.67 17.36 6.34 14.72 6 12 C5.34 12 4.68 12 4 12 C4 14.97 4 17.94 4 21 C2.35 21 0.7 21 -1 21 C-1.13794954 13.93391809 -0.74805717 7.02639415 0 0 Z " fill="#F6911E" transform="translate(51,178)"/>
<path d="M0 0 C2.31 0 4.62 0 7 0 C7.99 2.97 8.98 5.94 10 9 C11.32 6.03 12.64 3.06 14 0 C16.31 0 18.62 0 21 0 C21.33 6.93 21.66 13.86 22 21 C20.02 21 18.04 21 16 21 C15.67 18.36 15.34 15.72 15 13 C14.01 15.64 13.02 18.28 12 21 C10.35 20.67 8.7 20.34 7 20 C6.34 17.69 5.68 15.38 5 13 C4.67 15.64 4.34 18.28 4 21 C2.35 21 0.7 21 -1 21 C-1.10808032 13.90272572 -0.93854006 7.03905044 0 0 Z " fill="#19459D" transform="translate(296,178)"/>
<path d="M0 0 C2.31 0 4.62 0 7 0 C8.65 2.97 10.3 5.94 12 9 C12.33 6.03 12.66 3.06 13 0 C14.65 0 16.3 0 18 0 C18 6.93 18 13.86 18 21 C16.02 21 14.04 21 12 21 C10.1015625 18.8125 10.1015625 18.8125 8.625 16 C7.87089844 14.6078125 7.87089844 14.6078125 7.1015625 13.1875 C6.73804688 12.465625 6.37453125 11.74375 6 11 C5.67 14.3 5.34 17.6 5 21 C3.35 21 1.7 21 0 21 C0 14.07 0 7.14 0 0 Z " fill="#17A24A" transform="translate(615,178)"/>
<path d="M0 0 C2.31 0 4.62 0 7 0 C8.65 2.97 10.3 5.94 12 9 C12.33 6.03 12.66 3.06 13 0 C14.65 0 16.3 0 18 0 C18 6.93 18 13.86 18 21 C16.02 21 14.04 21 12 21 C10.1015625 18.8125 10.1015625 18.8125 8.625 16 C7.87089844 14.6078125 7.87089844 14.6078125 7.1015625 13.1875 C6.73804688 12.465625 6.37453125 11.74375 6 11 C5.67 14.3 5.34 17.6 5 21 C3.35 21 1.7 21 0 21 C0 14.07 0 7.14 0 0 Z " fill="#F6911E" transform="translate(205,178)"/>
<path d="M0 0 C1.98 0 3.96 0 6 0 C7.6796875 1.75 7.6796875 1.75 8.875 4 C9.28492188 4.7425 9.69484375 5.485 10.1171875 6.25 C10.55417969 7.11625 10.55417969 7.11625 11 8 C11.33 5.36 11.66 2.72 12 0 C13.65 0 15.3 0 17 0 C17 6.93 17 13.86 17 21 C15.02 21 13.04 21 11 21 C9.35 18.03 7.7 15.06 6 12 C5.67 14.97 5.34 17.94 5 21 C3.35 21 1.7 21 0 21 C0 14.07 0 7.14 0 0 Z " fill="#19459D" transform="translate(431,178)"/>
<path d="M0 0 C12.25039333 -0.49496539 12.25039333 -0.49496539 15.86328125 1.890625 C18.82313828 4.81260452 18.97014353 5.54468878 19.25 9.8125 C19.19430139 13.64874143 18.49416756 15.97136796 16 19 C11.14202434 22.17976589 5.5840909 21.12139328 0 21 C0 14.07 0 7.14 0 0 Z M6 4 C6 8.29 6 12.58 6 17 C7.98 16.34 9.96 15.68 12 15 C13.41441874 12.17116253 13.31900332 10.12623255 13 7 C11.2890789 5.02901574 11.2890789 5.02901574 9 4 C8.01 4 7.02 4 6 4 Z " fill="#19459D" transform="translate(339,178)"/>
<path d="M0 0 C12.46024735 -0.41077739 12.46024735 -0.41077739 17 3 C19.47361688 6.71042531 19.54607278 9.69862675 19 14 C17.76553082 16.83927911 16.87161407 18.42948897 14.28125 20.125 C9.76274384 21.85812565 4.76408175 21.10356699 0 21 C0 14.07 0 7.14 0 0 Z M6 4 C6 8.29 6 12.58 6 17 C7.98 16.34 9.96 15.68 12 15 C13.41441874 12.17116253 13.31900332 10.12623255 13 7 C11.2890789 5.02901574 11.2890789 5.02901574 9 4 C8.01 4 7.02 4 6 4 Z " fill="#17A24A" transform="translate(670,178)"/>
<path d="M0 0 C2.31 0 4.62 0 7 0 C8.32 2.64 9.64 5.28 11 8 C11.33 5.36 11.66 2.72 12 0 C13.65 0 15.3 0 17 0 C17 6.93 17 13.86 17 21 C15.35 21 13.7 21 12 21 C10.453125 19.3203125 10.453125 19.3203125 9.25 17.125 C8.84265625 16.40570313 8.4353125 15.68640625 8.015625 14.9453125 C7.33215184 13.63619852 6.66044152 12.32088303 6 11 C5.67 14.3 5.34 17.6 5 21 C3.35 21 1.7 21 0 21 C0 14.07 0 7.14 0 0 Z " fill="#17A24A" transform="translate(650,178)"/>
<path d="M0 0 C3.0625 1.8125 3.0625 1.8125 5 5 C5.96939828 10.34370789 5.91134362 14.50069275 3.0625 19.1875 C-1.0691803 21.63278018 -4.31431254 22.03560484 -9 21 C-11.99540063 19.00306625 -13.49113042 17.54887179 -14.625 14.09765625 C-15.51459596 9.26974486 -14.77487242 6.16230863 -12 2 C-7.95607915 -0.69594723 -4.74621612 -0.76471433 0 0 Z M-5 4 C-7.207809 5.53827847 -7.207809 5.53827847 -9 8 C-9.1716367 11.63239813 -9.1716367 11.63239813 -8 15 C-6.06402968 16.51294288 -6.06402968 16.51294288 -4 17 C-0.74911961 15.30207184 -0.74911961 15.30207184 -0.1875 12.125 C0.0060749 8.89875161 -0.09683264 7.56927593 -2 5 C-2.99 4.67 -3.98 4.34 -5 4 Z " fill="#F6911E" transform="translate(166,178)"/>
<path d="M0 0 C12.65513393 -0.27511161 12.65513393 -0.27511161 16 2 C18.82644678 6.23967017 18.65911947 10.02086859 18 15 C15.89495409 18.55680172 14.91593192 19.69468936 11 21 C7.32893957 21.13281695 3.67480286 21.04323297 0 21 C0 14.07 0 7.14 0 0 Z M5 4 C5 8.29 5 12.58 5 17 C10.47825081 15.67082039 10.47825081 15.67082039 12 14 C12.41692853 10.58399407 12.41692853 10.58399407 12 7 C10.30835778 4.95970404 10.30835778 4.95970404 8 4 C7.01 4 6.02 4 5 4 Z " fill="#17A24A" transform="translate(565,178)"/>
<path d="M0 0 C11.34912389 -0.49344017 11.34912389 -0.49344017 14.40625 1.82421875 C16 4 16 4 15.75 7.0625 C15.5025 8.031875 15.255 9.00125 15 10 C15 12.48349306 15.17841759 14.73543415 15.5 17.1875 C15.665 18.445625 15.83 19.70375 16 21 C14.35 21 12.7 21 11 21 C10.54625 19.865625 10.0925 18.73125 9.625 17.5625 C8.42904194 13.95278308 8.42904194 13.95278308 6 13 C6 15.64 6 18.28 6 21 C4.02 21 2.04 21 0 21 C0 14.07 0 7.14 0 0 Z M6 4 C6 5.65 6 7.3 6 9 C7.32 8.67 8.64 8.34 10 8 C9.67 6.68 9.34 5.36 9 4 C8.01 4 7.02 4 6 4 Z " fill="#F6911E" transform="translate(173,178)"/>
<path d="M0 0 C12.41836527 -0.40939666 12.41836527 -0.40939666 17 3 C18.84995114 6.69990228 18.46986842 10.96167141 18 15 C15.89495409 18.55680172 14.91593192 19.69468936 11 21 C7.32893957 21.13281695 3.67480286 21.04323297 0 21 C0 14.07 0 7.14 0 0 Z M6 4 C4.68737429 5.08552366 4.68737429 5.08552366 4.90234375 7.72265625 C4.91394531 8.82480469 4.92554688 9.92695313 4.9375 11.0625 C4.94652344 12.16722656 4.95554687 13.27195313 4.96484375 14.41015625 C4.97644531 15.26480469 4.98804688 16.11945313 5 17 C8.80703313 16.4370909 8.80703313 16.4370909 11.875 14.25 C13.20127716 12.03702954 13.20127716 12.03702954 12.9375 9.4375 C11.81235437 6.51212135 10.69007958 5.5488337 8 4 C7.34 4 6.68 4 6 4 Z " fill="#19459D" transform="translate(451,178)"/>
<path d="M0 0 C11.16564417 -0.49079755 11.16564417 -0.49079755 15.1875 1.875 C18.24600397 5.46083224 18.38896904 8.14380604 18.359375 12.73828125 C17.78943134 16.32520929 15.79773951 17.86838894 13 20 C9.14854957 21.92572521 4.19956748 21.04883218 0 21 C0 14.07 0 7.14 0 0 Z M5 4 C5 8.29 5 12.58 5 17 C10.47825081 15.67082039 10.47825081 15.67082039 12 14 C12.41692853 10.58399407 12.41692853 10.58399407 12 7 C10.30835778 4.95970404 10.30835778 4.95970404 8 4 C7.01 4 6.02 4 5 4 Z " fill="#F6911E" transform="translate(226,178)"/>
<path d="M0 0 C11.16564417 -0.49079755 11.16564417 -0.49079755 15.1875 1.875 C18.24600397 5.46083224 18.38896904 8.14380604 18.359375 12.73828125 C17.78943134 16.32520929 15.79773951 17.86838894 13 20 C9.14854957 21.92572521 4.19956748 21.04883218 0 21 C0 14.07 0 7.14 0 0 Z M5 4 C5 8.29 5 12.58 5 17 C10.47825081 15.67082039 10.47825081 15.67082039 12 14 C12.41692853 10.58399407 12.41692853 10.58399407 12 7 C10.30835778 4.95970404 10.30835778 4.95970404 8 4 C7.01 4 6.02 4 5 4 Z " fill="#F6911E" transform="translate(95,178)"/>
<path d="M0 0 C10.17966102 -0.48474576 10.17966102 -0.48474576 13.75 1.625 C15.41253743 4.78382111 14.83007101 6.60425495 14 10 C14.33 10.33 14.66 10.66 15 11 C15.3125 14.375 15.3125 14.375 15 18 C12.75352014 20.32048155 11.43127349 20.9548247 8.203125 21.29296875 C5.46875 21.1953125 2.734375 21.09765625 0 21 C0 14.07 0 7.14 0 0 Z M5 4 C5 5.32 5 6.64 5 8 C6.32 7.67 7.64 7.34 9 7 C8.67 6.01 8.34 5.02 8 4 C7.01 4 6.02 4 5 4 Z M5 12 C5 13.65 5 15.3 5 17 C6.32 16.67 7.64 16.34 9 16 C9 15.01 9 14.02 9 13 C7.68 12.67 6.36 12.34 5 12 Z " fill="#19459D" transform="translate(382,178)"/>
<path d="M0 0 C1.134375 0.020625 2.26875 0.04125 3.4375 0.0625 C4.44486628 2.99752595 5.44210504 5.93589461 6.4375 8.875 C6.72367188 9.70837891 7.00984375 10.54175781 7.3046875 11.40039062 C7.57539062 12.20283203 7.84609375 13.00527344 8.125 13.83203125 C8.37636719 14.57042236 8.62773438 15.30881348 8.88671875 16.06958008 C9.4375 18.0625 9.4375 18.0625 9.4375 21.0625 C7.4575 21.0625 5.4775 21.0625 3.4375 21.0625 C3.1075 19.4125 2.7775 17.7625 2.4375 16.0625 C0.7875 16.3925 -0.8625 16.7225 -2.5625 17.0625 C-2.8925 18.3825 -3.2225 19.7025 -3.5625 21.0625 C-5.5425 21.0625 -7.5225 21.0625 -9.5625 21.0625 C-5.77163687 0.10125679 -5.77163687 0.10125679 0 0 Z M-0.5625 8.0625 C-0.8925 9.0525 -1.2225 10.0425 -1.5625 11.0625 C-0.9025 11.0625 -0.2425 11.0625 0.4375 11.0625 C0.1075 10.0725 -0.2225 9.0825 -0.5625 8.0625 Z " fill="#17A24A" transform="translate(707.5625,177.9375)"/>
<path d="M0 0 C2.31 0 4.62 0 7 0 C8.00736628 2.93502595 9.00460504 5.87339461 10 8.8125 C10.28617187 9.64587891 10.57234375 10.47925781 10.8671875 11.33789062 C11.13789063 12.14033203 11.40859375 12.94277344 11.6875 13.76953125 C11.93886719 14.50792236 12.19023437 15.24631348 12.44921875 16.00708008 C13 18 13 18 13 21 C11.02 21 9.04 21 7 21 C6.67 19.35 6.34 17.7 6 16 C4.35 16 2.7 16 1 16 C0.67 17.65 0.34 19.3 0 21 C-1.98 21 -3.96 21 -6 21 C-4.55613874 13.78069368 -2.42211826 6.94889267 0 0 Z M3 7 C2.67 8.32 2.34 9.64 2 11 C2.99 10.67 3.98 10.34 5 10 C4.34 9.01 3.68 8.02 3 7 Z " fill="#F6911E" transform="translate(259,178)"/>
<path d="M0 0 C1.134375 0.020625 2.26875 0.04125 3.4375 0.0625 C4.44215729 3.18602227 5.44042927 6.31154853 6.4375 9.4375 C6.72367188 10.32695312 7.00984375 11.21640625 7.3046875 12.1328125 C7.57539062 12.98359375 7.84609375 13.834375 8.125 14.7109375 C8.37636719 15.49645996 8.62773438 16.28198242 8.88671875 17.09130859 C9.4375 19.0625 9.4375 19.0625 9.4375 21.0625 C7.4575 21.0625 5.4775 21.0625 3.4375 21.0625 C3.1075 19.4125 2.7775 17.7625 2.4375 16.0625 C0.7875 16.3925 -0.8625 16.7225 -2.5625 17.0625 C-2.8925 18.3825 -3.2225 19.7025 -3.5625 21.0625 C-5.5425 21.0625 -7.5225 21.0625 -9.5625 21.0625 C-5.77163687 0.10125679 -5.77163687 0.10125679 0 0 Z M-0.5625 8.0625 C-0.8925 9.0525 -1.2225 10.0425 -1.5625 11.0625 C-0.9025 11.0625 -0.2425 11.0625 0.4375 11.0625 C0.1075 10.0725 -0.2225 9.0825 -0.5625 8.0625 Z " fill="#F6911E" transform="translate(83.5625,177.9375)"/>
<path d="M0 0 C2.31 0 4.62 0 7 0 C8.00736628 2.93502595 9.00460504 5.87339461 10 8.8125 C10.28617188 9.64587891 10.57234375 10.47925781 10.8671875 11.33789062 C11.13789062 12.14033203 11.40859375 12.94277344 11.6875 13.76953125 C11.93886719 14.50792236 12.19023438 15.24631348 12.44921875 16.00708008 C13 18 13 18 13 21 C11.02 21 9.04 21 7 21 C6.67 19.35 6.34 17.7 6 16 C4.35 16 2.7 16 1 16 C0.67 17.65 0.34 19.3 0 21 C-1.98 21 -3.96 21 -6 21 C-4.55613874 13.78069368 -2.42211826 6.94889267 0 0 Z M3 7 C2.67 8.32 2.34 9.64 2 11 C2.66 11 3.32 11 4 11 C3.67 9.68 3.34 8.36 3 7 Z " fill="#17A24A" transform="translate(550,178)"/>
<path d="M0 0 C2.31 0 4.62 0 7 0 C13 14.47572816 13 14.47572816 13 21 C11.35 21 9.7 21 8 21 C7.773125 20.360625 7.54625 19.72125 7.3125 19.0625 C6.14749104 16.72806339 6.14749104 16.72806339 3.375 16.25 C2.59125 16.1675 1.8075 16.085 1 16 C0.67 17.65 0.34 19.3 0 21 C-1.98 21 -3.96 21 -6 21 C-4.11380178 13.96354423 -2.13072305 6.96640656 0 0 Z M3 7 C3 8.32 3 9.64 3 11 C3.66 11 4.32 11 5 11 C4.34 9.68 3.68 8.36 3 7 Z " fill="#19459D" transform="translate(484,178)"/>
<path d="M0 0 C1.134375 0.020625 2.26875 0.04125 3.4375 0.0625 C4.44215729 3.18602227 5.44042927 6.31154853 6.4375 9.4375 C6.72367187 10.32695312 7.00984375 11.21640625 7.3046875 12.1328125 C7.57539063 12.98359375 7.84609375 13.834375 8.125 14.7109375 C8.37636719 15.49645996 8.62773437 16.28198242 8.88671875 17.09130859 C9.4375 19.0625 9.4375 19.0625 9.4375 21.0625 C7.4575 21.0625 5.4775 21.0625 3.4375 21.0625 C3.1075 19.4125 2.7775 17.7625 2.4375 16.0625 C-0.00730079 16.25078772 -0.00730079 16.25078772 -2.5625 17.0625 C-3.92270151 19.03008273 -3.92270151 19.03008273 -4.5625 21.0625 C-6.2125 21.0625 -7.8625 21.0625 -9.5625 21.0625 C-7.61562628 0.13360748 -7.61562628 0.13360748 0 0 Z M-1.5625 8.0625 C-1.5625 9.0525 -1.5625 10.0425 -1.5625 11.0625 C-0.9025 11.0625 -0.2425 11.0625 0.4375 11.0625 C0.4375 10.0725 0.4375 9.0825 0.4375 8.0625 C-0.2225 8.0625 -0.8825 8.0625 -1.5625 8.0625 Z " fill="#19459D" transform="translate(328.5625,177.9375)"/>
<path d="M0 0 C4.29 0 8.58 0 13 0 C13 1.65 13 3.3 13 5 C10.69 5 8.38 5 6 5 C6 5.99 6 6.98 6 8 C8.31 8 10.62 8 13 8 C13 9.65 13 11.3 13 13 C10.69 13 8.38 13 6 13 C6 13.99 6 14.98 6 16 C8.64 16 11.28 16 14 16 C14 17.65 14 19.3 14 21 C9.38 21 4.76 21 0 21 C0 14.07 0 7.14 0 0 Z " fill="#17A24A" transform="translate(585,178)"/>
<path d="M0 0 C4.29 0 8.58 0 13 0 C13 1.65 13 3.3 13 5 C10.69 5 8.38 5 6 5 C6 5.99 6 6.98 6 8 C8.31 8 10.62 8 13 8 C13 9.65 13 11.3 13 13 C10.69 13 8.38 13 6 13 C6 13.99 6 14.98 6 16 C8.64 16 11.28 16 14 16 C14 17.65 14 19.3 14 21 C9.38 21 4.76 21 0 21 C0 14.07 0 7.14 0 0 Z " fill="#F6911E" transform="translate(115,178)"/>
<path d="M0 0 C4.29 0 8.58 0 13 0 C13 1.65 13 3.3 13 5 C10.36 5 7.72 5 5 5 C5 5.99 5 6.98 5 8 C7.64 8 10.28 8 13 8 C13 9.65 13 11.3 13 13 C10.36 13 7.72 13 5 13 C5 13.99 5 14.98 5 16 C7.97 16 10.94 16 14 16 C14 17.65 14 19.3 14 21 C9.38 21 4.76 21 0 21 C0 14.07 0 7.14 0 0 Z " fill="#19459D" transform="translate(360,178)"/>
<path d="M0 0 C2.50160818 1.87620613 3.61945652 3.23891303 5 6 C5.39447548 10.18144011 5.45035186 12.30946048 3.125 15.875 C0.34775111 18.65224889 -0.4012489 18.96673605 -4.375 19.1875 C-7.70738978 19.01513501 -9.32694535 18.88103846 -12 17 C-14.68990329 12.96514506 -14.77993882 9.73771348 -14 5 C-10.50967735 -0.51696161 -6.1041246 -1.26646324 0 0 Z M-7 2 C-7.66 2.66 -8.32 3.32 -9 4 C-6.69 4.33 -4.38 4.66 -2 5 C-2.061875 5.928125 -2.12375 6.85625 -2.1875 7.8125 C-2.30894264 10.98395103 -2.30894264 10.98395103 -0.5 12.875 C-0.005 13.24625 0.49 13.6175 1 14 C2.36636155 12.84133079 2.36636155 12.84133079 2.375 9.6875 C2.36307419 5.90389505 2.36307419 5.90389505 -0.25 3.5625 C-3.0524885 1.67066039 -3.0524885 1.67066039 -7 2 Z M-10 4 C-12.33775029 6.83573263 -12.33775029 6.83573263 -11.75 10.125 C-11.5025 11.07375 -11.255 12.0225 -11 13 C-10.34 13.33 -9.68 13.66 -9 14 C-9 10.7 -9 7.4 -9 4 C-9.33 4 -9.66 4 -10 4 Z M-7 6 C-7 6.66 -7 7.32 -7 8 C-6.01 8 -5.02 8 -4 8 C-4 7.34 -4 6.68 -4 6 C-4.99 6 -5.98 6 -7 6 Z M-7 11 C-7.33 12.65 -7.66 14.3 -8 16 C-5.69 16 -3.38 16 -1 16 C-2.28062485 14.2925002 -3.61767557 12.62626404 -5 11 C-5.66 11 -6.32 11 -7 11 Z " fill="#000000" transform="translate(777,15)"/>
<path d="M0 0 C1.98 0 3.96 0 6 0 C6.66 1.98 7.32 3.96 8 6 C8.66 6 9.32 6 10 6 C10.66 4.02 11.32 2.04 12 0 C13.98 0 15.96 0 18 0 C17.07931911 3.0453291 16.26133844 5.62367264 14.4375 8.25 C12.30890782 12.32208938 12.25541499 16.46418209 12 21 C10.02 21 8.04 21 6 21 C5.938125 19.72125 5.87625 18.4425 5.8125 17.125 C5.29218789 12.15050092 3.45682194 8.40767484 1.05859375 4.06640625 C0 2 0 2 0 0 Z " fill="#19459D" transform="translate(397,178)"/>
<path d="M0 0 C4.29 0 8.58 0 13 0 C13 1.65 13 3.3 13 5 C10.36 5 7.72 5 5 5 C5 5.99 5 6.98 5 8 C7.31 8 9.62 8 12 8 C12 9.65 12 11.3 12 13 C9.69 13 7.38 13 5 13 C5 15.64 5 18.28 5 21 C3.35 21 1.7 21 0 21 C0 14.07 0 7.14 0 0 Z " fill="#F6911E" transform="translate(137,178)"/>
<path d="M0 0 C1.98 0 3.96 0 6 0 C6 6.93 6 13.86 6 21 C4.02 21 2.04 21 0 21 C0 14.07 0 7.14 0 0 Z " fill="#19459D" transform="translate(471,178)"/>
<path d="M0 0 C1.98 0 3.96 0 6 0 C6 6.93 6 13.86 6 21 C4.02 21 2.04 21 0 21 C0 14.07 0 7.14 0 0 Z " fill="#19459D" transform="translate(422,178)"/>
<path d="M0 0 C1.98 0 3.96 0 6 0 C6 6.93 6 13.86 6 21 C4.02 21 2.04 21 0 21 C0 14.07 0 7.14 0 0 Z " fill="#F6911E" transform="translate(246,178)"/>
<path d="M0 0 C1.65 0 3.3 0 5 0 C5 6.93 5 13.86 5 21 C3.35 21 1.7 21 0 21 C0 14.07 0 7.14 0 0 Z " fill="#17A24A" transform="translate(691,178)"/>
<path d="M0 0 C1.65 0 3.3 0 5 0 C5 6.93 5 13.86 5 21 C3.35 21 1.7 21 0 21 C0 14.07 0 7.14 0 0 Z " fill="#17A24A" transform="translate(642,178)"/>
<path d="M0 0 C1.65 0 3.3 0 5 0 C5 6.93 5 13.86 5 21 C3.35 21 1.7 21 0 21 C0 14.07 0 7.14 0 0 Z " fill="#17A24A" transform="translate(607,178)"/>
<path d="M0 0 C1.65 0 3.3 0 5 0 C5 6.93 5 13.86 5 21 C3.35 21 1.7 21 0 21 C0 14.07 0 7.14 0 0 Z " fill="#F6911E" transform="translate(197,178)"/>
<path d="M0 0 C2.97 0 5.94 0 9 0 C9 1.32 9 2.64 9 4 C6.03 4 3.06 4 0 4 C0 2.68 0 1.36 0 0 Z " fill="#19459D" transform="translate(504,186)"/>
<path d="M0 0 C2.64 0 5.28 0 8 0 C8 1.32 8 2.64 8 4 C5.36 4 2.72 4 0 4 C0 2.68 0 1.36 0 0 Z " fill="#19459D" transform="translate(279,186)"/>
</svg>
